<svg xmlns="http://www.w3.org/2000/svg" xmlns:xlink="http://www.w3.org/1999/xlink" width="101" height="96" viewBox="0 0 101 96">
  <defs>
    <filter id="astraonaut_head-a" width="125.7%" height="126.7%" x="-12.8%" y="-13.3%" filterUnits="objectBoundingBox">
      <feOffset dy="2" in="SourceAlpha" result="shadowOffsetOuter1"/>
      <feGaussianBlur in="shadowOffsetOuter1" result="shadowBlurOuter1" stdDeviation="2"/>
      <feColorMatrix in="shadowBlurOuter1" result="shadowMatrixOuter1" values="0 0 0 0 0   0 0 0 0 0   0 0 0 0 0  0 0 0 0.5 0"/>
      <feMerge>
        <feMergeNode in="shadowMatrixOuter1"/>
        <feMergeNode in="SourceGraphic"/>
      </feMerge>
    </filter>
    <polygon id="astraonaut_head-b" points=".037 .307 .662 .307 .662 3.817 .037 3.817"/>
  </defs>
  <g fill="none" fill-rule="evenodd" filter="url(#astraonaut_head-a)" transform="translate(3.84)">
    <path fill="#FFF" d="M84.9336851,46.0302343 C84.6207317,44.1455592 84.1902908,42.2130918 83.5633442,40.4084167 C83.1526579,39.2245207 84.2178432,36.5247807 84.1705362,35.1668588 C84.0935975,32.978807 83.2727447,30.8915345 83.0985928,28.7133529 C82.9275602,26.5756908 83.0892354,24.6177689 82.4758052,22.5330938 C81.4454502,19.0281591 76.6544558,16.1943931 73.7401422,14.416731 C69.6228814,11.9055624 64.5438867,11.0967313 59.9156073,10.0385496 C57.9749842,9.59439377 56.4367298,8.15491339 54.7747497,7.13465375 C53.5161779,6.36166682 51.9815625,6.18816034 50.5514382,5.96790062 C48.4720136,5.64738117 46.1976429,5.7211474 44.5715328,6.96010831 C40.1096073,7.52738099 35.683552,7.83387446 31.8225803,10.4951729 C28.3707353,12.8754324 25.5068477,17.0172502 24.3470486,21.0842628 C20.3020478,27.4530933 15.5110535,32.7372486 15.0598183,40.8427024 C14.8352404,44.881663 15.5287286,48.9969873 16.5497261,52.8915323 C17.1631563,55.2328308 17.6861316,57.5839994 18.4196487,59.8936096 C19.1687614,62.2473756 20.5526185,64.0411416 20.9451099,66.4832193 C20.3763873,67.2452972 20.0821487,68.0910114 19.9573832,69.2686736 C19.9163146,69.6619203 20.073831,69.8645177 20.3108854,69.9595826 C19.1781188,71.2582838 16.7535097,72.0515304 15.1554718,72.5315304 C14.9969157,72.5455564 14.8290022,72.5777642 14.6408142,72.6520499 C14.4406696,72.7304914 14.2410449,72.8099719 14.0403804,72.8884135 C13.8558314,72.9611407 13.6692031,73.1081537 13.4950513,73.2920498 C11.1161895,72.4775044 6.90639426,76.8317897 9.90284518,79.5995816 C11.4291429,81.0084127 13.6660839,82.0068541 15.3410605,83.3221787 C17.0623042,84.6743863 18.5678077,86.0645161 20.5983659,86.9284121 C22.3970682,87.6936068 24.6626013,87.7019185 26.5657947,88.0011393 C29.5476897,88.4697106 32.5815703,89.0239963 35.5977757,89.1517885 C35.9517978,89.165295 36.3552061,88.9928275 36.731582,88.7211392 C46.4653688,90.3419182 56.342116,90.3071131 66.219903,89.2598404 C70.3948678,88.8172431 76.3004338,88.3626977 79.7553979,85.7450356 C82.1732489,83.9138669 82.1503752,80.3736075 79.1788774,79.6556855 C77.2710053,78.4920493 76.2905565,76.7289326 74.763739,75.0832185 C74.0411389,74.3039978 73.0601703,73.9320497 72.0438515,73.6743874 C73.7016728,72.5663356 75.7764188,71.6873746 77.1316838,70.4229592 C79.2074695,68.4868555 81.0909083,66.4307518 82.3437617,63.8655572 C82.570419,63.3995832 82.6276032,63.0588041 82.5750977,62.8115314 C83.0949538,61.9351678 83.5363117,61.0177653 83.8409474,60.0338693 C85.2611945,55.4489347 85.7228267,50.7798442 84.9336851,46.0302343"/>
    <path fill="#999" d="M53.0951581,87.442393 C53.6983709,86.4670995 53.377468,84.969032 51.8506682,82.8572735 C51.0291146,81.7213251 50.4676668,80.8049211 50.2054463,79.4530443 C50.055304,78.6812813 49.8385491,78.2773197 49.336841,77.6951396 C48.3931646,76.602067 45.5573772,75.6314226 47.5504642,73.891598 C48.1520909,73.3662413 48.5248035,72.8005917 48.3857632,71.9978341 C47.8486342,68.8958013 42.3737247,67.5439246 39.977791,66.5433189 C37.5496084,65.5287656 36.4409868,63.8323333 35.4708769,61.5382238 C34.914187,60.2209576 34.2718527,58.5637851 32.9681517,57.7708425 C32.1428974,57.2687316 31.3102417,57.1261569 30.3670939,56.9350241 C29.0607497,56.6700212 27.9685169,55.8610647 26.9418392,55.0727713 C24.9328921,53.5287287 23.5102404,51.6607935 22.4566005,49.390963 C20.2435867,44.6229759 21.023904,39.0439661 22.3038148,34.1437358 C23.46266,29.7058401 25.9267922,25.8351437 27.4160564,21.5336238 C28.8905178,17.2723968 29.7252882,12.5901611 33.5761226,9.68132735 C33.9710393,9.38378016 34.1888514,8.42501699 33.4169928,8.7923018 C33.1214661,8.93384335 32.8428569,9.09243187 32.5737637,9.25980217 C32.4141053,9.20039604 32.1984078,9.23190712 31.980067,9.41115864 C30.1429377,10.9221405 28.6267114,12.5803462 27.2600987,14.5092372 C25.5916153,16.8653357 24.6156899,19.5938847 22.8753074,21.9153727 C21.2697357,24.0581258 19.7270758,25.8284282 18.4693692,28.2263693 C17.6562743,29.7771274 17.2095479,31.3676618 16.736388,32.9643951 C16.5502961,33.1291825 16.4054404,33.2934534 16.3478154,33.4174314 C15.8619674,34.4583299 15.6378112,35.3256593 15.6039763,36.4688398 C15.5981609,36.683735 15.6446839,36.828376 15.7223984,36.9275584 C15.4702227,37.8899376 15.1969002,38.8528333 15.1154849,39.8327761 C14.9024308,42.3918886 15.2191043,45.2082554 15.4829108,47.7570364 C16.0110524,52.8638967 17.9401703,57.6990385 19.6340298,62.5181666 C19.7297192,63.4278551 20.5295973,64.4961322 20.8330541,65.173362 C21.1349248,65.8469758 20.7664416,66.7220538 20.5179666,67.536176 C20.2404147,67.6503391 19.9813662,67.8233917 19.8264658,68.0398366 C19.4452946,68.572942 19.1296784,69.1148291 18.8193489,69.6887439 C18.296494,70.6552557 16.4482627,70.8608526 15.4770954,71.0886622 C14.0792912,71.4151375 12.6973471,71.7932704 11.3772574,72.3542709 C9.75318225,73.0438985 8.22691114,74.9634911 9.13886738,76.7389593 C9.16107153,76.7818351 9.18697638,76.8179953 9.21446723,76.8495064 C9.08177099,78.6332398 10.7565984,79.9014314 12.3727435,80.8436642 C15.6769328,82.7694557 19.2015776,84.2525425 22.8176823,85.523317 C27.2817742,87.0921552 31.9922264,88.3458827 36.708494,88.6775238 C39.8022725,88.8950019 51.6333848,89.8072733 53.0951581,87.442393"/>
    <path fill="#000" d="M87.6780843,36.8646312 C87.5621178,36.1830591 87.4357972,35.5045688 87.306888,34.8271058 C87.4585763,34.6653159 87.5709188,34.4845221 87.5771313,34.324273 C87.6097469,33.5445998 87.4870502,32.8013936 87.3234547,32.039697 C87.1396685,31.1947943 86.6664839,30.4063895 86.5437872,29.5573778 C86.4997821,29.2404751 86.2916637,29.1726774 86.054036,29.2404751 C86.0338454,29.1819226 86.0157256,29.12337 85.995535,29.0637903 C85.8904404,28.4222805 85.6983709,27.8126151 85.4566016,27.2101403 C85.3597903,26.79565 85.2785102,26.3837278 85.2143145,25.9759146 C85.1749687,25.7447862 85.0377762,25.6662025 84.8705567,25.6677434 C84.7261163,24.9414865 84.2446484,24.3528795 84.1240226,23.615323 C84.1188455,23.5875876 84.1048674,23.576288 84.0971018,23.5526615 C84.3021139,23.2819845 84.3973721,22.962 84.201161,22.75193 C83.2019856,21.6800077 81.861641,21.0189804 80.6414045,20.2310893 C79.3813045,19.4170037 78.1750462,18.6398986 76.7109695,18.2254083 C73.2578607,17.2485055 69.7617822,17.3255483 66.2201455,17.5987935 C62.7069827,17.8704978 59.1296242,18.2007546 55.7474413,19.2346691 C54.0265817,19.7606146 52.3859668,20.4868715 50.7790029,21.2855486 C49.2610846,21.6964435 47.9197046,22.6682101 46.6036922,23.4864047 C46.4582164,23.5752607 46.3557103,23.7375643 46.2982448,23.9055176 C44.4526177,24.6317744 42.8829287,25.8249107 41.1511972,26.7627784 C40.8452321,26.9271364 40.5889669,27.4078835 40.6604106,27.6533933 C39.4924626,28.2188875 38.5305621,29.25537 37.7840279,30.2692534 C37.6763448,30.4176892 37.6437292,30.562016 37.658225,30.6863117 C37.4780628,30.8537514 37.3258568,31.0494402 37.1979831,31.269269 C37.1037603,31.3139538 37.0157501,31.3786698 36.9520721,31.4480083 C36.9339523,31.4680394 36.9158325,31.4875569 36.8971951,31.5075881 C36.8086671,31.6051756 36.7594849,31.6971134 36.7268693,31.7849422 C36.2961367,31.8681484 35.7225168,32.4557282 36.0678277,32.7870123 C36.1925952,32.9077127 36.3178804,33.0273858 36.4436833,33.147059 C36.5498134,33.2492691 36.6870058,33.2508099 36.8241983,33.2056115 C37.7048187,33.8450668 38.2779209,35.0027634 38.7687075,35.8928646 C39.6141238,37.42653 39.4344793,39.3793084 39.5276667,41.0763046 C39.6301727,42.9448494 39.6027342,44.8216122 39.1352444,46.6434177 C38.9136656,47.5016746 38.5393631,48.332196 38.182145,49.1432 C37.7752269,50.0651456 37.1860758,50.6650522 36.5306582,51.4072312 C36.362921,51.5977838 36.0626506,52.0066243 36.3163273,52.2547021 C37.7234562,53.6214415 38.7650836,55.2706711 40.0495158,56.7411615 C41.4923665,58.3909048 43.1795751,59.3667803 45.370513,59.6497842 C46.6104224,59.8100333 47.8436016,59.8382823 49.0664266,60.1320722 C50.2214319,60.4078855 51.3324321,60.8531929 52.4729417,61.1808816 C54.8776928,61.8758077 57.4165302,61.9929128 59.9030791,62.0946093 C63.3225369,62.2338 66.7570082,62.658049 70.1526514,62.4495198 C70.0434151,62.6205548 70.0558401,62.8809595 70.3198709,62.7484459 C70.638261,62.5881969 71.1295654,62.8111074 71.4536502,62.8768506 C71.8812766,62.9626249 72.4253871,62.8167572 72.8581906,62.7582047 C73.9350221,62.6123369 74.9585297,62.3267649 75.9442447,61.8716988 C76.9646461,61.4007104 77.8882362,60.7514964 78.9355584,60.3287882 C79.822909,59.9692551 80.7589241,59.8013018 81.4785375,59.1356519 C81.5541227,59.066827 81.6079643,58.9872161 81.6478278,58.9045235 C82.8587455,58.3980955 83.8951959,57.7632627 84.7250809,56.8315584 C84.9823815,57.0370059 85.5824045,56.6410059 85.7449646,56.4180953 C86.9077356,54.8289591 87.3058526,53.03078 87.5450335,51.1149822 C87.8365028,48.7882894 88.1906147,46.5150131 88.2170177,44.1621258 C88.2444562,41.7157599 88.0870732,39.2750438 87.6780843,36.8646312"/>
    <path fill="#E26DB6" d="M45.5119319,30.3766776 C44.4270012,31.3058109 43.4644466,32.6666937 43.757018,34.1583321 C44.0202808,35.4976787 45.1648569,36.6160229 46.5387597,36.7590848 C48.9292065,37.009315 50.921674,34.0988511 50.3920633,31.9211309 C49.9945981,30.2838668 48.2180884,29.7711001 46.7068982,30.0895282 C46.5865789,30.1151665 46.2359046,30.4858969 46.4837419,30.5520438 C47.1285301,30.7227951 47.8005701,30.6176779 48.4201632,30.9202103 C49.0325577,31.2186405 49.4660158,31.8149882 49.6202713,32.4723551 C49.888676,33.6194143 49.3297567,34.954146 48.3605177,35.6130512 C47.1994876,36.4021992 45.6229959,35.9919858 44.8126401,34.8956906 C44.3406181,34.2583216 44.1246604,33.4230246 44.3545011,32.6518235 C44.6043951,31.8119116 45.2723216,31.2181277 45.8219856,30.5720417 C46.0559398,30.296686 45.7196627,30.1987475 45.5119319,30.3766776"/>
    <path fill="#E26DB6" d="M42.8115912 33.4010823C42.3953551 34.088543 41.7541964 34.6309965 41.7686742 35.5089775 41.7795325 36.1572756 42.1900809 36.5817125 42.7914257 36.7198397 43.4475793 36.8717267 44.1114888 36.6854402 44.707663 36.4065397 45.7526482 35.9164792 46.7019768 35.2237263 47.656993 34.5770158 48.8550291 33.7657169 50.9889501 33.0507367 51.4072544 31.456717 51.7386921 30.1929325 49.8498592 29.9367886 49.0204894 30.0119382 48.7759184 30.0341656 48.3405509 30.6258369 48.7298997 30.6300707 49.3038402 30.6353629 51.0494465 30.7316815 50.6513076 31.7356175 50.3984636 32.3738605 49.5975323 32.7707777 49.0478938 33.0851362 48.5085966 33.3942024 47.9868795 33.7154407 47.4718843 34.0647279 46.3715732 34.8119908 44.9806725 36.0657201 43.5721916 35.977869 43.0613328 35.9466449 42.5809809 35.7032023 42.5540936 35.1226447 42.5241039 34.4605867 43.1828428 34.0414421 43.3048697 33.4090206 43.3757074 33.0412107 42.9201745 33.2216757 42.8115912 33.4010823M44.0848649 49.7090926C44.0930129 50.1962903 44.1006516 50.6877199 44.0339401 51.1712146 43.9748673 51.6002237 43.820565 51.9980224 43.7136229 52.4153938 43.6784847 52.5502856 43.7401038 52.6666629 43.8765824 52.6777717 44.3170822 52.7132139 44.372081 54.6408451 44.3939787 54.991035 44.6093908 54.8836505 44.8253121 54.776266 45.0407242 54.6683525 45.0172987 54.0489079 44.6211035 52.6312208 45.311135 52.3021904 45.4883535 52.2175524 45.8575585 51.7002024 45.4659465 51.6584123 45.3401622 51.6446586 45.1461386 51.7245358 45.0371594 51.7002024 44.8278583 51.6536514 44.8528115 51.4330636 44.8334601 51.1886712 44.8003589 50.7654811 44.9073011 50.3248343 44.6002243 50.0000358 44.458144 49.8503323 44.1989366 50.1291088 44.1714372 50.2682326 44.0721337 50.7707709 44.0089869 51.7832534 44.2788886 52.2350089 44.5039764 52.6121772 44.8222566 52.3148861 45.1481756 52.3439804 45.2001189 52.1297404 45.2520622 51.9149714 45.3034963 51.7002024 43.988617 52.3476833 44.38634 53.7754212 44.3939787 54.991035 44.396525 55.4084063 45.0315577 54.9635276 45.0407242 54.6683525 45.0590571 54.0631905 45.0147525 52.0440444 44.1974088 51.9847978 44.2513892 52.0726097 44.3058787 52.1598927 44.3603683 52.2471757 44.4668012 51.7985941 44.6409642 51.3632372 44.6735561 50.898257 44.7086942 50.4073564 44.6093908 49.9169847 44.5253648 49.4361349 44.4830972 49.1965035 44.0823187 49.5472223 44.0848649 49.7090926"/>
    <path fill="#FFF" d="M47.2314923 58.2749003C46.9077481 58.164198 46.7985829 58.6028653 46.790705 58.8314242 46.7884542 58.8961888 46.8353465 58.9225465 46.8904918 58.9312069 47.1249531 58.9692373 47.4817094 58.7199688 47.4400691 58.4597807 47.417936 58.3242268 47.2870128 58.2677461 47.1613415 58.2944803 47.0116614 58.325733 46.882989 58.4552622 46.8195907 58.5896865 46.7201791 58.799795 46.7944564 59.1100627 47.0791862 59.0144219 47.2978918 58.9409969 47.4348172 58.6939877 47.4351923 58.4707003 47.4359426 58.1867903 47.1748465 58.0975507 46.9501387 58.2444007 46.706299 58.4036765 46.6245188 58.7971592 46.9411354 58.9289477 47.2581271 59.0614892 47.6347658 58.6209392 47.5668658 58.3197084 47.5098448 58.066298 47.2397454 58.0116999 47.0319188 58.1114826 46.8173398 58.2142776 46.5952581 58.4767249 46.6076376 58.7290057 46.6252691 59.0882235 47.0518012 58.9583177 47.2153614 58.7896284 47.271257 58.7316415 47.3672923 58.5870507 47.2847619 58.5102369 47.2434967 58.4714534 47.168094 58.4447192 47.1455857 58.4454722 47.1305802 58.4458488 47.146336 58.4688176 47.1485868 58.4488611 47.1425846 58.4978111 47.1748465 58.4307872 47.14371 58.4801138 47.1035702 58.5441253 47.1812238 58.4646757 47.1151995 58.5207799 47.1046956 58.5294403 46.9940299 58.5870507 46.9951553 58.5825323 46.9981564 58.5719892 47.0334194 58.5934519 47.0349199 58.5953346 47.1467111 58.7403019 47.3777962 58.4326699 47.2052326 58.3882384 47.1272039 58.4703238 47.0491752 58.5524092 46.9711465 58.6348711 46.9763984 58.633365 46.9816503 58.6326119 46.9869023 58.6329884 46.9872774 58.6258342 47.0255415 58.6860803 47.0157879 58.6789261 47.0247912 58.6853273 47.016163 58.721475 47.0142873 58.7207219 47.0146625 58.7203453 47.0150376 58.7203453 47.0154128 58.7203453 47.0360454 58.692105 47.064931 58.6740311 47.1020697 58.6649942 47.173721 58.6231984 47.2386199 58.5482673 47.1114481 58.6499326 46.9028713 58.8174923 47.225115 58.5588103 47.0754349 58.5452549 47.1088222 58.5787669 47.1422094 58.6119023 47.1755967 58.6450376 47.1744713 58.6107726 47.1785978 58.5731188 47.1744713 58.5388538 47.157215 58.4002876 47.2960161 58.5765076 47.0360454 58.6043715 47.132831 58.5942049 47.4205619 58.3396649 47.2314923 58.2749003M74.6995415 59.0955703C74.1849521 58.9906516 73.6408902 59.3152439 73.7098558 59.5942622 73.7752846 59.8611492 74.2391814 60.0450849 74.7119199 59.9903304 75.2760231 59.9241005 75.8289268 59.5840982 75.5766424 59.2545878 75.2724865 58.8575359 74.4460782 59.0585209 74.1295438 59.343113 74.0287479 59.4336054 73.9061424 59.5942622 74.1448695 59.6539347 74.3794704 59.7132794 74.6588695 59.5657374 74.7861906 59.4785237 74.7838328 59.4804909 74.605819 59.5460651 74.6011034 59.5378684 74.6011034 59.5378684 74.6588695 59.5395077 74.6665323 59.5440979 74.7024888 59.566721 74.7608443 59.5880326 74.7991585 59.6129508 74.8044635 59.6165574 74.8133053 59.653279 74.8150736 59.6536068 74.8133053 59.6795087 74.8191998 59.6713119 74.8309888 59.6283608 74.8669452 59.6021311 74.9029016 59.5759014 74.9382686 59.5496717 74.9636149 59.5637702 74.8085897 59.553934 74.8191998 59.5549177 74.6871631 59.5421307 74.5669154 59.4739335 74.507381 59.4113101 74.5003076 59.4037691 74.4608145 59.3237686 74.4637617 59.3244243 74.4543305 59.3224571 74.2786745 59.5109829 74.2173718 59.482786 74.2291608 59.4883598 74.3735759 59.45754 74.3871333 59.4562285 74.5645576 59.4329496 75.0396539 59.165079 74.6995415 59.0955703"/>
    <path fill="#E26DB6" d="M77.6920296,57.8061081 C77.7522839,57.8583325 77.7812952,57.8936764 77.8633081,57.9269101 C78.1199469,58.0308316 78.4005758,57.7074618 78.4652934,57.5133345 C78.5785492,57.1736116 78.6265295,56.5870094 78.1807591,56.4350837 C77.7941272,56.3032037 77.35282,56.5759315 77.1324454,56.8576272 C76.8903123,57.1672814 76.8166681,57.6663153 77.1519723,57.9517036 C77.6379122,58.3652792 78.256077,57.5349628 78.4000179,57.1783593 C78.567391,56.7626736 78.4401874,56.0911406 77.8331809,56.1307046 C77.2178057,56.1707962 76.8869648,56.8054027 76.9444296,57.3271199 C76.9661881,57.5238849 77.041506,57.7649615 77.2635544,57.8356492 C77.5653839,57.9316578 77.9045934,57.6726455 78.0736403,57.4653302 C78.3207946,57.1620062 78.5579065,56.4915283 78.1182731,56.2399013 C77.5564573,55.9181141 76.7686878,56.5722389 76.630326,57.0733828 C76.5516606,57.3603537 76.6777484,57.6631501 76.9394084,57.8250988 C77.2669018,58.0276664 77.6496284,57.9427357 77.919657,57.6963839 C78.0429552,57.5834946 78.1974964,57.2511571 77.9084988,57.2326939 C77.7333149,57.2210884 77.6116905,57.2859734 77.4616126,57.1614787 C77.3968949,57.1076716 77.2936815,56.9794843 77.3444514,56.8993012 C77.4348329,56.7589809 77.6116905,56.8861132 77.6278699,57.0000575 C77.6328911,57.0359289 77.5726367,57.236914 77.5759842,57.2406067 C77.6105746,57.2063179 77.6524179,57.1804694 77.7003982,57.1620062 C77.7656737,57.1783593 77.7746003,57.1688639 77.7271779,57.1356302 C77.7249463,57.0923735 77.6864505,57.0396215 77.6786397,56.9937273 C77.6652499,56.9172369 77.7238305,56.748958 77.6976087,56.6925134 C77.65186,56.7431553 77.5983006,56.7869395 77.5374884,56.8238659 C77.5475308,56.8265035 77.5575731,56.8291411 77.5670576,56.8317787 C77.5804475,56.8660675 77.6741764,56.918292 77.6998403,56.9631311 C77.7494943,57.0491169 77.7584209,57.130355 77.7288516,57.2216159 C77.7277358,57.2253086 77.6412597,57.3877847 77.6384702,57.3846196 C77.6507442,57.3993902 77.9598266,57.1060891 77.7718108,57.3397804 C77.7740424,57.3360878 77.6976087,57.1809969 77.6797555,57.1145294 C77.6663657,57.06547 77.6970508,57.0696902 77.683103,57.0417316 C77.6663657,57.0797131 77.6674815,57.0791855 77.6858925,57.0401491 C77.6719448,57.0691627 77.65186,57.0939561 77.6261961,57.1150569 C77.6897979,57.0480619 77.5486466,57.1477631 77.6328911,57.1092542 C77.5704051,57.1377403 77.6122484,57.1250798 77.6133642,57.1277174 C77.5731946,57.13141 77.5726367,57.1319375 77.6133642,57.130355 C77.6468388,57.1329926 77.6529758,57.1329926 77.6323331,57.130355 C77.589374,57.1203321 77.7132302,57.1693915 77.664134,57.1372127 C77.8398758,57.2511571 77.7907797,57.4911786 77.7617684,57.6795033 C77.9369522,57.5376004 78.1121361,57.3956975 78.2878779,57.2537947 C78.2292973,57.2543222 78.1740642,57.2479919 78.1160415,57.249047 C77.9202149,57.2522121 77.4638442,57.6088156 77.6920296,57.8061081"/>
    <path fill="#FFF" d="M50.9766947 26.4781318C50.8435893 26.607697 50.8097847 26.7629005 50.8034464 26.9487785 50.8004885 27.040344 50.8626044 27.0842955 50.9373969 27.0939098 51.3802365 27.1488491 51.7089857 26.3961807 51.1529009 26.3201813 51.1558588 26.4671439 51.1588167 26.6136488 51.1617746 26.7606114 51.2720619 26.6479858 51.4326335 26.4305177 51.3519252 26.2533385 51.2881191 26.1141589 51.1178287 26.1159902 50.9969774 26.1443755 50.7134418 26.2116762 50.2486293 26.7162021 50.6103379 26.9922721 50.8359833 27.1648731 51.216707 26.73772 51.0705023 26.4941558 51.0223308 26.4135781 51.0607835 26.4401321 51.0299369 26.4914088 50.9990902 26.5912152 50.9450029 26.6644676 50.8680976 26.7116238 50.8351382 26.7235274 50.834293 26.724443 50.8651397 26.7152865 50.8376735 26.7496235 50.8888029 26.6786603 50.867675 26.7120817 50.9014796 26.7290213 50.8917608 26.7143708 50.8380961 26.6690459 50.945848 26.4428791 50.9614827 26.3732893 50.885845 26.46165 50.7827411 26.5692395 50.6555515 26.8823935 50.8947187 26.9016223 50.9652857 26.9071162 50.9150014 26.950152 50.9399323 26.8494299 50.9796526 26.777551 51.0193729 26.7061299 51.0590933 26.6347088 51.1009264 26.6022031 51.1427595 26.5687817 51.1845927 26.5358181L51.3181206 26.6804916C51.3172755 26.6305884 51.3193883 26.5957935 51.3299522 26.5481794 51.3924906 26.2638685 51.0844467 26.3732893 50.9766947 26.4781318M52.9487965 25.298682C52.601456 25.4566415 52.2869167 25.8213043 52.725046 26.0280077 53.1040161 26.2072239 53.6341058 25.9961226 53.904715 25.8169064 54.1472091 25.6560149 54.3861887 25.3192057 53.9228728 25.2136551 53.5866613 25.137424 53.0477856 25.1359581 52.7443752 25.2660639 52.246501 25.4800972 52.3361184 25.9048653 52.8427786 26.0712542 53.2668503 26.2108889 53.8174406 26.0697882 54.083364 25.8388961 54.3610021 25.5981087 54.2549842 25.2048592 53.7073226 25.180304 53.1907048 25.1572148 52.7367607 25.4837621 52.7291461 25.7919847 52.7197744 26.1947631 53.4876722 26.1863337 53.8924146 26.0265417 54.1114793 25.9400488 54.3715454 25.7765919 54.3475302 25.5977422 54.3205865 25.4016672 53.9779318 25.3774785 53.7348521 25.4284213 53.598376 25.4566415 53.1192452 25.7021934 53.3722825 25.8051785 53.4361275 25.8311997 53.5550316 25.8766451 53.6007189 25.8729802 53.5468313 25.8770116 53.6780358 25.65235 53.7453953 25.6637113 53.7143514 25.6585804 53.6592923 25.6776382 53.6223911 25.6754392 53.5005583 25.6688423 53.5198876 25.6376902 53.454871 25.5951767 53.4566282 25.5827159 53.4577997 25.570988 53.4589712 25.5592602 53.4279273 25.5768519 53.3962976 25.5944437 53.3652537 25.611669 53.3019944 25.6593134 53.3066802 25.5933442 53.379897 25.6340252 53.3880973 25.6387897 53.5767038 25.7549687 53.5357024 25.7527697 53.5392168 25.7531362 53.6311771 25.6644443 53.6440632 25.6725072 53.635863 25.6677428 53.5632319 25.6868006 53.5427312 25.6857011 53.3886831 25.6776382 53.0173274 25.5629251 53.1251026 25.4357512 53.0542287 25.4877936 52.9839406 25.5394694 52.912481 25.5915118 52.7754191 25.6556484 52.8322354 25.615334 52.9318102 25.608737 53.0132273 25.6028731 53.0981588 25.6036061 53.1801616 25.6054386 53.3037516 25.6080041 53.4126982 25.6171664 53.5193018 25.647952 53.4437421 25.6263288 53.6850647 25.6028731 53.4958724 25.6435541 53.4507709 25.6534495 53.4185555 25.6813031 53.3664251 25.6853346 53.2978942 25.690099 53.2258489 25.6648108 53.1825045 25.6303603 53.1362315 25.5937107 53.1579037 25.5424014 53.1075305 25.5676896 53.2147199 25.5141812 53.3834114 25.4013007 53.3142948 25.3052789 53.2463496 25.2103566 53.0489571 25.2532366 52.9487965 25.298682M87.9109164 34.2195403C87.4488781 31.3785901 86.2922179 28.6955875 85.6033323 25.908866 85.1532882 24.0887835 84.3043058 22.5403709 82.3920096 22.1602438 82.2527723 22.1323397 82.1010193 22.1281278 81.9461374 22.1428695 80.4239141 19.9026466 78.6445973 18.70751 75.6815028 17.7577187 74.529536 17.3870684 73.038602 17.2359652 71.9653798 17.7492948 71.8678616 17.4886813 71.5846936 17.3807505 70.9954122 17.5818704 62.3741737 20.5428607 58.5939076 27.9974593 55.3763271 35.9158971 53.6616747 40.1352031 52.6671973 43.5405525 53.995427 48.1320882 55.1166261 52.0091744 58.425467 54.7590415 62.1947818 55.66724 69.559756 57.4404647 78.8964759 53.9024392 84.0101866 48.5511758 85.9574226 46.5147052 87.0520258 44.7899178 87.4274971 42.5628571 88.3995506 40.006739 88.3708688 37.0531196 87.9109164 34.2195403"/>
    <path fill="#000" d="M32.2074397,73.5347085 C27.3052139,71.0685842 23.6510641,66.3193196 21.0044349,61.6376342 C19.3960466,58.7915064 18.488497,55.715609 17.9037706,52.5133903 C17.3232096,49.3356041 16.8186682,46.1157108 16.7712861,42.8802222 C16.6921424,37.499871 17.8090064,32.1060039 20.3322338,27.3307472 C22.7096701,22.8310061 26.2648903,19.0195341 30.4818979,16.1806841 C35.4002648,12.8698186 41.028322,10.9843564 46.8906863,10.2290279 C53.3440253,9.39728277 60.0837397,9.67741935 66.4089907,11.2349196 C71.8287749,12.5698706 76.9184464,15.3037128 80.6949566,19.4525614 C84.8307378,23.9975287 86.9952149,29.8665302 87.7512459,35.8982418 C88.5754864,42.4695481 87.8918302,49.2285169 86.1287993,55.5965654 C85.1723055,59.0509069 83.96276,62.5172047 82.1622399,65.6310505 C80.3830678,68.7085074 77.6999909,71.088858 74.7190835,72.9826376 C73.2892894,73.8902795 71.7803515,74.665362 70.2245521,75.3328375 C70.1469704,75.3655874 70.1079193,75.5241388 70.2266349,75.4742341 C73.3116787,74.1793109 76.1764739,72.394178 78.6559639,70.1448273 C81.2229287,67.8169806 82.877137,64.9100314 84.1856121,61.7327651 C86.8020417,55.3782324 88.2011156,48.4238035 88.2200461,41.5535888 C88.2375634,35.0810522 86.9931322,28.3782262 83.4670703,22.8528394 C80.4262845,18.0884994 75.85313,14.532789 70.6192295,12.4492675 C64.7053176,10.094909 58.0051751,9.47421919 51.6887756,9.73154034 C45.4650576,9.9852226 39.2564394,11.2520744 33.7142949,14.1626625 C29.2312185,16.517021 25.2433112,19.8055333 22.2920827,23.9325486 C19.2601485,28.1718495 17.4237013,33.1664789 16.832206,38.3336955 C16.4932417,41.2936684 16.5494754,44.2905501 16.9181186,47.2448048 C17.3497644,50.7053843 17.8709676,54.2642137 18.9847075,57.5792379 C19.8573713,60.1748025 21.2361386,62.5681491 22.7757968,64.823218 C24.4279224,67.2435963 26.3419513,69.538693 28.6214993,71.395564 C29.7039982,72.2777337 30.8661616,73.0424193 32.1277753,73.6454345 C32.1756781,73.6688274 32.2647148,73.5632997 32.2074397,73.5347085"/>
    <path fill="#000" d="M31.2763132 40.5537243C33.3772906 32.7779843 39.0079516 26.8902851 45.9363973 23.1962694 52.8024995 19.5353956 60.6988288 17.7772925 68.4320257 17.6810229 73.3176814 17.6205256 78.8179405 18.4885299 82.2094292 22.4366341 82.2811243 22.5202782 82.4655572 22.3335257 82.399577 22.244095 81.1402374 20.5433327 79.1478417 19.455434 77.2229848 18.7073722 75.0944724 17.8798748 72.9046554 17.5353034 70.6348309 17.4506072 66.1902558 17.2843713 61.6739857 17.7883398 57.3405899 18.7946987 50.0713328 20.4828354 42.8358451 23.7439011 37.5662572 29.212854 34.4968767 32.3986927 32.2634193 36.2884039 31.1266887 40.5916008 31.0981146 40.6989177 31.2576102 40.6231646 31.2763132 40.5537243M32.0931032 46.577997C33.3012895 50.5126882 34.8989776 54.6477453 37.8165857 57.6769271 40.8735999 60.8498159 45.6473456 62.1189715 49.8154318 63.1336778 55.09459 64.4193159 60.5225524 64.6438905 65.9343291 64.815927 67.7951657 64.8751611 69.5844719 64.8355 71.4202468 64.4960627 73.2805614 64.1519897 75.1058939 63.6142468 76.8633507 62.92095 78.7675234 62.1704794 80.6294043 61.2283992 82.2568532 59.9880881 83.5323931 59.0161334 84.7395351 57.812908 85.3044693 56.2934239 85.3739113 56.105935 85.1300811 56.1672295 85.0810018 56.2903334 83.8597625 59.3566009 80.3349285 61.2211881 77.4376831 62.4398659 74.1269184 63.8321254 70.5399521 64.6866421 66.9300124 64.5748698 61.6325801 64.4110746 56.2897233 64.2931214 51.0930602 63.1599468 46.9187085 62.2503167 42.2660947 61.0826318 38.8968526 58.3496207 37.0767413 56.8739183 35.7604761 54.7847565 34.714147 52.7316501 33.6923576 50.7285065 32.9070887 48.6166811 32.2372084 46.4765264 32.2142351 46.4023549 32.0722184 46.5110367 32.0931032 46.577997"/>
    <path fill="#000" d="M25.9790266,38.7293404 C25.2754652,40.8048398 25.2022654,43.0889794 25.4371369,45.2452587 C25.6361984,47.0749491 26.0743445,49.0037561 27.0117242,50.6312489 C28.7553558,53.657771 32.8134727,55.4260092 36.0121493,53.1795339 C37.5267021,52.1160139 38.4656617,50.3889091 39.030196,48.729699 C39.7295445,46.671545 39.9422981,44.4181315 39.7827329,42.2687904 C39.5257434,38.8016955 37.9006008,34.249275 33.9799311,33.119347 C30.0413565,31.9839675 26.9437905,35.538285 25.9579619,38.7342963 C25.9258382,38.837873 26.090143,38.7744384 26.1138408,38.7159597 C27.2618676,35.8891573 29.6758837,32.4780633 33.4127637,33.2804113 C37.1322654,34.078299 38.9032811,38.0399852 39.414627,41.2518552 C39.9944332,44.892404 39.4909866,49.6063843 36.7062316,52.4207972 C35.4139114,53.7266569 33.4933363,54.3178868 31.6375351,53.9258811 C29.8017454,53.5383356 28.2524358,52.2641931 27.3118963,50.764065 C26.2886779,49.1331031 25.8189348,47.1507732 25.598282,45.2854008 C25.3412925,43.1122717 25.3976406,40.7964149 26.1006754,38.7001011 C26.1275329,38.6203123 25.996405,38.6777999 25.9790266,38.7293404"/>
    <path fill="#000" d="M32.0910138 45.5891117C32.5175435 48.5442541 32.9780719 51.5328629 34.4264913 54.1783077 35.4911371 56.1225502 36.93799 57.8282777 38.6307715 59.2344007 42.0805578 62.0981743 46.4226832 63.6466625 50.7345244 64.5523821 55.365916 65.5255657 60.1889333 65.8772293 64.9116996 65.7948911 69.2861977 65.7183964 73.7828769 65.1893074 77.8681089 63.5106718 80.3190392 62.5040216 82.8425472 60.994312 84.3155072 58.6877817 84.4314225 58.5066378 84.2173447 58.4768898 84.1244036 58.6160678 82.8321043 60.5666849 80.8088076 61.9234049 78.737996 62.8891516 74.9185338 64.6708427 70.6275782 65.3077681 66.4635029 65.4936929 61.8080929 65.7003351 57.046166 65.4097611 52.45028 64.611878 48.1269517 63.8612729 43.7628964 62.5576742 40.1011208 60.0285653 38.1425696 58.6755637 36.4336017 56.9793981 35.1439132 54.9538798 33.3284286 52.1033866 32.7363206 48.8215477 32.2324544 45.5205851 32.2188788 45.4313412 32.0820778 45.5248348 32.0910138 45.5891117M31.3738147 40.0673562C31.2539886 40.2283114 31.210747 40.3913915 31.1315575 40.5815631 31.0893579 40.6824922 31.2206457 40.6479638 31.2492997 40.5836879 32.1625834 38.5427963 32.9341597 36.4386913 33.9188181 34.4312656 34.9331725 32.3643449 36.2403195 30.5231866 37.7860769 28.8366091 40.5592709 25.8098 43.9248229 23.3917525 47.5503455 21.5431573 54.2262252 18.1397236 61.8232033 16.4643014 69.2815999 16.7559332 72.9993366 16.9014835 77.1260451 17.4459692 80.2014094 19.76415 80.3186306 19.8523302 80.5603669 19.6000075 80.4499184 19.5112962 77.8189529 17.3917862 74.1366431 16.8079913 70.8867494 16.5662928 67.439924 16.3091893 63.9238079 16.4855496 60.5170983 17.083687 52.4507142 18.5004121 44.4098583 21.9059707 38.5222263 27.8336931 36.8727932 29.4947727 35.383302 31.3359311 34.2574572 33.408695 33.6359241 34.5523805 33.110252 35.7454681 32.6137549 36.9502422 32.3501374 37.5903448 32.0938136 38.2331035 31.834364 38.8747998 31.7192267 39.1600571 31.6030474 39.4453145 31.4863471 39.7300407 31.4410216 39.839469 31.3321361 40.0301718 31.3097338 40.1565987 31.2539886 40.4668227 31.1935545 40.4700099 31.4462314 40.0944476 31.4920779 40.0264533 31.4108046 40.0174228 31.3738147 40.0673562"/>
    <path fill="#000" d="M27.7269884 46.7464485C27.6124003 45.56822 27.4158959 44.3968204 27.379436 43.2107125 27.3401351 41.9211223 27.5650499 40.7975241 28.0882725 39.6492373 28.599184 38.5293161 29.4121915 36.8131893 30.7479482 36.9576444 31.7186327 37.0627027 32.5164881 38.0113789 32.9469038 38.9159306 33.4625504 39.9980307 33.6368001 41.2561035 33.7210839 42.4626977 33.8067883 43.6908288 33.9005422 44.9704385 33.8522447 46.2017214 33.8096293 47.2817204 33.7476002 48.7094622 33.317658 49.7054146 33.0420782 50.3420677 32.2385408 51.1494405 31.5661642 51.1778062 31.0230544 51.2003938 30.5140369 50.7565226 30.0552109 50.4959781 29.9983903 50.46341 29.8961133 50.5973593 29.9605099 50.6425344 30.6504062 51.1263277 31.3620837 51.568623 32.1391049 51.0732733 32.7243566 50.7003164 33.3124494 50.0767956 33.5364171 49.358197 34.2173168 47.1698333 34.0350175 44.6353026 33.8905986 42.3723476 33.7655934 40.4235167 33.3228665 37.959375 31.5661642 37.0106989 29.9117389 36.1171783 28.7966355 37.9436163 28.1124212 39.3529729 27.5915661 40.4256179 27.272424 41.4867064 27.2534838 42.7116858 27.2331231 44.0868985 27.4812395 45.443726 27.6185559 46.8037053 27.626132 46.8788219 27.732197 46.8010788 27.7269884 46.7464485M22.0984534 62.9238165C19.2761269 64.9066801 20.6185604 69.1602064 22.5113502 71.3061747 25.1464208 74.2916035 29.0570106 75.4405733 32.6179868 76.5505761 41.4911199 79.3144497 50.8523636 79.5744153 60.0242763 79.2409691 65.5164272 79.0422374 71.0148027 78.5568199 76.4675313 77.8225703 76.5526005 77.8108802 76.6744984 77.5982317 76.5614186 77.6138185 67.6696118 78.7856119 58.6548696 79.4324641 49.6956299 79.0528142 45.2481703 78.8641025 40.8007107 78.3731184 36.4481759 77.3566363 34.4163706 76.8817956 32.4203566 76.2650037 30.4347168 75.6075748 28.7312578 75.0436666 27.040248 74.3834543 25.4872163 73.4348862 23.7464099 72.3722005 22.0968972 70.8864445 21.2617666 68.8896641 20.4333793 66.9079138 20.3534972 64.4374061 22.1378757 63.0379342 22.2110145 62.980597 22.1985653 62.8536759 22.0984534 62.9238165M19.8738742 68.7849479C18.5623519 73.1145412 12.2705759 71.5667041 9.68699137 74.5897075 9.05459467 75.3297624 8.74203079 76.2715157 8.91025454 77.2206844 9.10236191 78.3008581 9.92894282 79.1936699 10.7664271 79.8931874 11.6293527 80.613468 12.6132539 81.192362 13.6039049 81.7371453 14.7980859 82.3941479 15.9995358 83.0397804 17.2399263 83.6157082 20.377507 85.0725833 23.7689809 86.3317148 27.170839 87.0959933 27.2108181 87.1053862 27.2855843 87.0272775 27.2357402 87.0099749 24.4481064 86.0227406 21.6002445 85.2550016 18.8723198 84.106112 16.4439788 83.0837783 13.964236 81.8810036 11.8048453 80.3959502 10.8510582 79.7399362 9.92271231 78.9504454 9.3977919 77.9281116 8.75604943 76.6793616 9.15220599 75.2363286 10.1906242 74.3049569 11.7051572 72.9469536 14.1449208 72.7526706 16.0415917 72.1366997 17.8380552 71.5538508 19.5192543 70.6175355 20.0047149 68.7542976 20.0280793 68.66383 19.8904889 68.730074 19.8738742 68.7849479M72.7563282 73.6433744C73.9784973 73.8762178 75.1191129 74.3226215 76.1424955 74.9382344 76.661266 75.2496564 77.1534184 75.6063937 77.5611857 76.0229086 77.9842442 76.4538858 78.1501828 76.8877555 78.3818173 77.3939368 78.4163642 77.469623 78.5386944 77.3563348 78.5409598 77.3129478 78.5975941 76.2764813 77.1981596 75.3118444 76.3186283 74.7878262 75.3235629 74.1958352 74.0662805 73.5898638 72.8231567 73.5483871 72.78238 73.5469589 72.6974285 73.6327687 72.7563282 73.6433744M31.1447369 87.584894C35.0642984 88.1266496 39.0488454 88.3695055 42.9967071 88.6185885 47.1054599 88.8785689 51.222598 89.0435863 55.3402602 89.0316511 59.3599202 89.0202348 63.3717191 88.817336 67.363079 88.3409647 69.4656704 88.089806 71.5598766 87.7691117 73.6357401 87.3534544 75.2540856 87.0296465 76.9101646 86.6793736 78.3927745 85.9336813 79.7286433 85.2616762 81.1179678 84.1283485 81.3962519 82.5887042 81.7070288 80.8648423 80.509516 79.3111871 79.1427268 78.4009963 79.0368635 78.3304228 78.8335221 78.5483704 78.929428 78.611679 80.2988376 79.5171995 81.5408968 81.0910927 81.1310697 82.8206628 80.7217666 84.549195 78.8979834 85.6067599 77.3440992 86.1858779 75.7367593 86.784196 74.009406 87.0919173 72.3260752 87.3970439 70.2570246 87.7717063 68.1727758 88.0581517 66.0817141 88.2802507 58.644557 89.0684946 51.132457 88.9076285 43.6774813 88.4623927 39.5074116 88.2133097 35.35254 87.7525061 31.1840425 87.5039421 31.1478813 87.5013475 31.0923293 87.5776291 31.1447369 87.584894"/>
    <path fill="#000" d="M20.4781106 68.8182801C20.4848944 70.2939357 20.5923912 71.7721182 21.4299267 73.0516935 22.2904228 74.3666442 23.5814278 75.4546875 24.9178319 76.2991466 27.7654529 78.0982336 31.0785454 79.3151442 34.3603281 80.1252387 41.5913129 81.9106809 48.9611042 82.3857207 56.4034297 82.2305748 60.4982221 82.1451687 64.7015549 82.1583081 68.7321622 81.3744923 68.8307879 81.3552886 68.9455903 81.1450582 68.7859106 81.1672941 65.1184963 81.6716449 61.4516037 81.8510483 57.7518359 81.9425187 54.2258372 82.0294409 50.6987948 82.0410642 47.1769708 81.8242641 43.5100782 81.5983675 39.8515349 81.1389939 36.2754406 80.310201 32.9289511 79.5349764 29.6784781 78.5469947 26.6351712 76.9647078 25.0008027 76.115195 23.480193 75.1120524 22.268506 73.7349423 20.9754137 72.2643403 20.6591853 70.6294958 20.6315283 68.7470241 20.6299628 68.6560591 20.4781106 68.7515724 20.4781106 68.8182801M73.5859145 52.3396192C73.1290319 56.4636672 71.8657951 60.4936475 69.8589035 64.159302 68.867535 65.9699811 67.6942357 67.6880856 66.344145 69.2668305 64.9036028 70.9505928 63.2564613 72.5049497 61.1843007 73.4282069 61.1221153 73.4560788 61.0851125 73.5780185 61.1858425 73.5416854 63.1696073 72.8180111 64.8182906 71.1745635 66.1647839 69.6445944 67.5518775 68.0683381 68.759096 66.3477451 69.7838699 64.5305958 71.9151323 60.750965 73.2405544 56.5656983 73.7036042 52.2853685 73.7107992 52.218675 73.5915677 52.2888525 73.5859145 52.3396192M56.2959036 8.78084115C58.1359869 9.28135852 60.0160832 9.61467248 61.8279522 10.2299373 63.7470355 10.8812656 65.3408851 11.9216423 66.8788193 13.2958793 70.1249992 16.1951644 72.0917902 20.6987279 72.6365821 25.1339893 72.6447898 25.2006521 72.7391794 25.1301644 72.7361751 25.0826262 72.5888743 22.8510618 71.7927189 20.6550146 70.8611351 18.6726161 69.900824 16.629019 68.7773831 14.8482482 67.1399295 13.3510674 65.6050733 11.9478702 64.0184054 10.8599553 62.0813676 10.2042557 60.2017843 9.5682271 58.2519219 9.22562405 56.3430984 8.71035345 56.3118062 8.7021572 56.2620465 8.77100566 56.2959036 8.78084115M54.3257759 5.77348421C51.7099916 4.94387847 48.9961544 4.7284622 46.2823172 4.88707157 43.676909 5.0389316 41.0211772 5.41126991 38.4811376 6.0648305 34.1761441 7.17115897 29.7912555 9.43443592 27.0582227 13.3327392 25.4136301 15.679258 24.3423103 18.4419857 23.3918706 21.1822157 23.3332464 21.3520739 23.5366155 21.2975168 23.5765631 21.1844654 24.4154609 18.8300725 25.3135019 16.4678053 26.5970105 14.3502015 27.8722182 12.2466588 29.5951495 10.565512 31.5717734 9.25839077 35.6920746 6.53503416 40.5879801 5.54850638 45.3365467 5.14017162 48.3243098 4.88425934 51.3343812 5.03330716 54.2303169 5.91747002 54.2930915 5.93659314 54.3952949 5.79541955 54.3257759 5.77348421"/>
    <path fill="#000" d="M40.877653 10.6048663C41.4199948 9.31836113 42.1335464 8.13036414 43.0576542 7.14233287 44.0700254 6.05933263 45.1993724 5.50190604 46.5100316 5.01172456 46.554695 4.99520821 46.6663536 4.82591569 46.567456 4.83948269 43.9057278 5.18573603 41.8001657 8.06488863 40.8058725 10.6036866 40.7798189 10.669752 40.859575 10.6467471 40.877653 10.6048663M55.3197628 6.88921752C55.5399276 7.40167063 55.9290239 7.71223156 56.2244232 8.15793889 56.5424391 8.63674331 56.756142 9.24021338 57.1253912 9.66495923 57.1692395 9.71570809 57.2767833 9.59876508 57.2472434 9.5413968 57.0035389 9.06645372 56.7307561 8.58820092 56.4501268 8.14304521 56.1408806 7.65320843 55.6954738 7.3056891 55.4203832 6.78716819 55.3940742 6.73807419 55.2989925 6.84067514 55.3197628 6.88921752M46.649909 9.67515453C47.6921158 9.43405305 48.7544441 9.2649746 49.8254613 9.20524818 50.7858098 9.15123091 51.7296952 9.27463622 52.6886717 9.2785887 53.1720471 9.28034536 53.8415472 9.28825033 54.1941323 8.89871115 54.3967201 8.67473709 54.4026651 8.39411078 54.2000773 8.16662341 53.8259987 7.74678186 53.0819573 7.74282937 52.5633691 7.74193548 51.6423492 7.74019438 50.7286462 7.88775376 49.8076263 7.8934629 48.7791388 7.90005037 47.5594962 7.92200861 46.8543261 8.75334759 46.7390842 8.88992785 46.9306966 8.91539941 47.0184999 8.81175651 47.7030912 8.00149744 49.048951 8.12753774 50.0202749 8.10250535 50.6678241 8.08625625 51.3108003 8.00061912 51.9569776 7.96504677 52.5258698 7.93430523 53.2552773 7.87809213 53.7683778 8.15871845 54.0605981 8.31813527 54.2169977 8.50917196 53.995203 8.77881915 53.7180738 9.11697606 53.2095464 9.07569456 52.789737 9.07657289 52.0868533 9.07832955 51.3876282 8.98478745 50.6852019 8.99225325 49.3329397 9.00762402 47.9825069 9.22413227 46.6796341 9.56009335 46.626129 9.57414662 46.5634777 9.69535611 46.649909 9.67515453M70.1322482 17.4220988C66.9303382 18.1118271 64.2598766 20.0428571 62.108172 22.4296938 59.7555217 25.0405091 57.8026475 28.0992815 56.2934401 31.2559136 54.6784718 34.6333844 53.5669252 38.3012947 53.4035247 42.0503187 53.2908894 44.6417713 53.5817317 47.3499231 54.8635533 49.6572161 56.906853 53.3340227 61.0013846 54.9023958 65.0551982 55.1268976 69.5859933 55.3770419 74.2606232 54.245113 78.3287145 52.30414 80.4211931 51.3056563 82.4163716 50.026676 84.1318127 48.4713857 86.160306 46.6329824 87.5129873 44.303187 87.9836231 41.6117813 88.1232275 40.8111103 88.1914432 40.0010197 88.2200461 39.1904058 88.2231715 39.0962092 88.0661166 39.1945923 88.0629438 39.2647164 87.9402612 42.307266 87.0666765 45.192298 84.9615067 47.471332 83.3682194 49.1966994 81.3360245 50.5908089 79.2567661 51.6855825 75.420291 53.7050525 71.0185241 54.9154786 66.6648785 54.9740898 62.7522556 55.0264213 58.5086012 54.0295074 55.9645238 50.8645023 54.5885751 49.1532643 53.9021871 47.0197117 53.6859062 44.8636566 53.3384817 41.3930359 53.9481931 37.8763634 55.0930544 34.5951825 56.4177091 30.7995835 58.4726425 27.237906 60.9411009 24.0587714 63.2900495 21.0329678 66.2534687 18.4713441 70.0899438 17.5895594 70.1682069 17.5717667 70.2554596 17.3954098 70.1322482 17.4220988M49.006388 35.3651613C49.0450977 35.3651613 49.0983235 35.28 49.0470331 35.28 49.0083235 35.28 48.9541299 35.3651613 49.006388 35.3651613M46.1031622 35.3651613C46.1418718 35.3651613 46.1950977 35.28 46.1438073 35.28 46.1050977 35.28 46.0509041 35.3651613 46.1031622 35.3651613M78.6194545 55.576247C78.1732203 56.0100544 77.2902462 56.817418 77.6655227 57.6001074 78.0353024 58.3718943 79.1101622 58.0327671 79.615861 57.6494559 80.0900785 57.2896712 80.4898404 56.6039573 80.4778476 55.9314411 80.4633562 55.1338324 79.7872589 55.0500548 79.2470806 55.258925 79.1821193 55.284173 79.0881753 55.4735334 79.2076042 55.4419733 79.657836 55.3197498 80.2464854 55.2681061 80.3064497 55.9543939 80.3549208 56.5081295 80.0391089 57.1198207 79.6658312 57.442881 79.2285917 57.8210278 78.3196331 58.1710576 77.8853917 57.6207649 77.3377179 56.9258699 78.2346837 56.0806341 78.6634283 55.6565817 78.7128988 55.6078071 78.6794188 55.5182913 78.6194545 55.576247M36.9400824 60.1128933C38.8573238 61.8682446 40.648176 63.734715 42.9675182 64.8717601 44.1167418 65.4356069 45.3189673 65.6710473 46.5451455 65.9499452 47.1628214 66.0907694 47.7590926 66.3080567 48.373201 66.4576823 49.0122815 66.6133591 49.6615546 66.595206 50.3001254 66.7717863 50.3888016 66.7965405 50.5483169 66.6238109 50.443842 66.5550491 49.9953645 66.2596484 49.4898081 66.3201587 48.9842516 66.2557977 48.2896211 66.1677826 47.6209819 65.8943857 46.9355248 65.7464103 45.7037406 65.4801646 44.4841876 65.2821306 43.3196749 64.7457885 40.9055409 63.6323974 39.0163294 61.8104847 37.0369128 60.0089255 36.993594 59.9687686 36.8982925 60.0749368 36.9400824 60.1128933M41.784766 65.9795687C42.3212538 66.4453581 42.8878814 66.8741706 43.5191724 67.1753533 44.1510115 67.4771323 44.8601179 67.5475077 45.5237407 67.7407417 45.5692244 67.7538626 45.6782755 67.6554563 45.6251199 67.6107262 45.1598716 67.2248546 44.5088527 67.2904587 43.9712689 67.0996103 43.2221587 66.8336153 42.549768 66.3391987 41.9327248 65.8185403 41.8636774 65.7612858 41.7201025 65.9229105 41.784766 65.9795687M40.8853194 23.2081999C42.1362036 22.4197823 43.4426227 21.7184572 44.7452676 21.0105111 45.9799765 20.3387263 47.1995886 19.6073518 48.5022335 19.0562743 49.8943813 18.4669983 51.4310278 18.1349257 52.8819456 17.6948787 54.2757109 17.2721482 55.6586927 16.8672438 57.1117672 16.6681021 57.2001918 16.6558786 57.3274369 16.4394203 57.1953392 16.4521531 55.7309421 16.5922144 54.3334025 17.0434664 52.9407156 17.4702713 51.5043555 17.911337 49.9930502 18.2505399 48.6111467 18.8311576 47.2669854 19.3970052 46.0128662 20.1569013 44.7431109 20.8536425 43.42483 21.5773773 42.1070882 22.2980563 40.8470381 23.1099024 40.7731712 23.1572686 40.7888072 23.2688083 40.8853194 23.2081999M43.7818966 19.3387941C44.1471499 19.0997964 44.7109104 18.9778587 45.1586206 18.8213721 45.6020552 18.6661048 46.0467113 18.512057 46.4968646 18.3653253 47.4509209 18.0556037 48.455062 17.8344902 49.4176694 17.5414334 49.4836349 17.5211104 49.5764752 17.4036438 49.4402687 17.4211216 48.2925915 17.5674467 47.1565194 17.974312 46.126725 18.3283376 45.3369717 18.5994456 44.3303873 18.8542952 43.7263146 19.3013999 43.6731757 19.3408264 43.7238714 19.3765948 43.7818966 19.3387941M33.737109 31.3288873C32.517547 30.3953286 31.0546965 29.8414617 29.4987933 30.0402989 28.1518687 30.2119052 26.9354258 30.886513 25.9253623 31.7584167 23.5309453 33.824885 22.1840207 36.539244 21.7187573 39.6194224 21.4463573 41.4248847 21.4016504 43.260147 21.481187 45.0820506 21.5550054 46.7708824 21.6532565 48.514176 22.0587375 50.1619044 22.7787261 53.0925695 24.7390706 56.224127 27.5634015 57.5707738 29.8247376 58.6492216 32.6729814 57.9191242 34.0043106 55.7894596 34.0822877 55.6646084 33.934651 55.6450843 33.8707098 55.7406495 32.596044 57.6375666 30.1257292 58.4072259 27.9808389 57.5163119 25.3129821 56.408578 23.3531575 53.5642299 22.4948894 50.9218016 22.0306657 49.4929482 21.8871879 48.0132295 21.7665833 46.5247764 21.6387008 44.9469235 21.5919145 43.3603362 21.6797687 41.7788869 21.8528779 38.67045 22.5572711 35.6899471 24.6153469 33.2535492 25.6955898 31.9752366 27.040435 30.8135547 28.6909504 30.352684 30.4610308 29.8584168 32.2092775 30.3372702 33.6456159 31.4193145 33.6887632 31.4511696 33.7776571 31.3602285 33.737109 31.3288873M10.6512431 79.2684114C10.0777848 78.2103574 9.5992001 76.9653583 10.3218208 75.8364325 11.0281022 74.7331769 12.2704195 74.3464515 13.4141736 73.9826059 14.4588375 73.6500109 15.4940141 73.3045809 16.5676672 73.0886173 17.8532047 72.8291262 19.1192404 72.7934113 20.4190089 72.7147269 20.4511606 72.7124948 20.509666 72.6366006 20.4569584 72.6304621 19.0370166 72.4675129 17.5084972 72.7297942 16.1212341 73.048438 14.8219927 73.3458762 13.4948162 73.7521332 12.2514447 74.2554901 11.3090335 74.6366351 10.413532 75.2309534 10.0055754 76.2544085 9.57600877 77.3325521 10.0192794 78.4073474 10.5574236 79.3392831 10.5858857 79.3883911 10.6733803 79.3091487 10.6512431 79.2684114"/>
    <path fill="#000" d="M31.8963664 14.5399703C30.3370328 15.1518357 28.949332 16.1598614 27.6555243 17.2394381 26.3743367 18.3084925 25.1890614 19.4517284 24.1345299 20.7643716 21.9638811 23.4659438 20.1511369 26.585773 18.5665632 29.6919234 16.9602831 32.8412147 15.9476501 36.1057241 15.710898 39.6748508 15.5846975 41.5756843 15.6351777 43.4849356 15.7871231 45.3820864 15.9042372 46.8462491 16.0506298 48.3356651 16.3913711 49.7635262 16.7851167 51.4139316 17.0864836 53.0816987 17.5296998 54.7205297 17.7442407 55.5139028 18.0198626 56.2767616 18.2964941 57.047512 18.5337511 57.7093577 18.7432439 58.3733079 19.0966054 58.9804382 19.1889842 59.1393233 19.4454236 58.8952085 19.3999914 58.7531589 19.0072554 57.5289021 18.5887745 56.3388425 18.258634 55.0914369 17.8850804 53.6798852 17.5105173 52.2683334 17.2293426 50.8325807 16.6321617 47.7879851 16.3499774 44.6144927 16.4327649 41.5093945 16.5286773 37.9087013 17.1475646 34.5095079 18.6296635 31.2428941 20.0092875 28.2025074 21.757417 25.2899654 23.6418431 22.5631399 25.8013863 19.4396279 28.6106098 16.7080675 31.9014144 14.9224519 32.086172 14.821965 32.2164109 14.4142302 31.8963664 14.5399703M18.5559138 59.4202008C20.150137 62.315767 21.7469746 65.2770239 23.8954374 67.8162047 24.9605186 69.0751915 26.1463822 70.2700393 27.4833546 71.2471248 28.1458277 71.7312709 28.7999351 72.0286897 29.5272438 72.3855923 30.3031793 72.7673229 31.0660431 73.1666399 31.8456386 73.541129 31.9496892 73.590785 32.1651107 73.3725055 32.065243 73.2856075 31.4968859 72.7880129 30.8443472 72.5583538 30.1693252 72.238176 29.4075072 71.8766182 28.7513084 71.1762615 28.0956325 70.6419421 26.8067639 69.5924416 25.6046914 68.4586294 24.4815719 67.2368846 23.3056427 65.9587596 22.2557247 64.6495995 21.3783529 63.1516432 20.5799342 61.7871374 19.8270049 60.4034933 18.9653191 59.0757123 18.8581313 58.9107095 18.4659806 59.257267 18.5559138 59.4202008"/>
    <path fill="#000" d="M25.1780994,19.8385339 C25.2737862,19.4191685 25.5212889,19.0482309 25.7089205,18.6628681 C25.9350407,18.1991961 26.1504696,17.7319179 26.3781934,17.2692764 C26.844867,16.3182338 27.3270428,15.3419468 28.0011269,14.5083677 C28.7340128,13.6021467 29.6662908,12.8406944 30.5702369,12.0993346 C31.4137774,11.407433 32.2198985,10.6707099 33.106204,10.0287819 C35.060032,8.61252179 37.2768649,8.08032947 39.6439101,7.6661159 C41.9553608,7.26169095 44.2668114,6.64191617 46.5964372,6.36989531 C49.3558517,6.04790093 52.3478011,6.22821778 55.0072522,7.00358026 C55.1740359,7.0525234 55.4354373,6.71507329 55.2568932,6.6687061 C52.7396358,6.00771603 50.1598345,5.67593302 47.5517014,5.85418911 C45.0312366,6.02626291 42.597371,6.69652641 40.1164639,7.11125518 C37.8392253,7.49095095 35.479664,7.92525698 33.5167484,9.17253442 C32.457779,9.84588907 31.529243,10.6804985 30.5504581,11.4522546 C29.6213875,12.1858866 28.6789528,12.9169427 27.866417,13.7742205 C26.9753004,14.7134138 26.3423777,15.8236504 25.7661187,16.9611921 C25.4961644,17.4944148 25.2379704,18.0327894 24.984053,18.5727096 C24.7590019,19.0513221 24.4698033,19.5160244 24.3607525,20.0358521 C24.2399412,20.6097749 25.0947075,20.2048348 25.1780994,19.8385339"/>
    <path fill="#000" d="M41.0513753 9.60809543C41.67338 8.84779625 42.601675 8.15477202 43.4651777 7.55805236 44.2903942 6.98805837 45.1220899 6.5632124 46.1864484 6.32867163 46.3937833 6.28259289 46.8632319 5.84576645 46.4285354 5.81258976 45.3217676 5.72826567 44.163166 6.53141807 43.412166 7.0746864 42.4061205 7.80273046 41.5161118 8.65518712 40.8246028 9.57722267 40.7221134 9.71361574 40.9777479 9.69748818 41.0513753 9.60809543M54.3708396 7.0235928C54.5524241 7.20803968 54.7922365 7.21260519 54.9932303 7.38152931 55.2559025 7.60250031 55.4504265 7.90793337 55.6880823 8.15629747 55.9136612 8.39324779 56.1198308 8.65028637 56.3027093 8.92513047 56.4588462 9.15934147 56.561931 9.44788212 56.7702572 9.63735106 56.963056 9.8126669 57.3874721 9.36752903 57.2097694 9.17258147 57.0191272 8.96348081 56.9009463 8.69731119 56.7353205 8.46766571 56.5278569 8.18049471 56.2988275 7.90382441 56.0404685 7.66596099 55.8084198 7.45229481 55.5910359 7.20301761 55.3391467 7.01537487 55.2533146 6.95237075 55.1252134 6.85786455 55.0221285 6.82225352 54.859522 6.76564112 54.7434976 6.87019145 54.5657949 6.78116387 54.4726304 6.73413905 54.2854388 6.93730454 54.3708396 7.0235928"/>
    <path fill="#000" d="M37.0232328 12.1888106C37.9011111 12.2047977 38.7385294 11.8246044 39.5205811 11.4913733 40.5251636 11.06172 41.6154577 10.7489724 42.6972338 10.5436381 44.9645983 10.1134852 47.2702934 9.96560453 49.5669383 9.7477803 51.8305762 9.53395284 54.0420418 9.40655564 56.3152623 9.61438794 58.6544968 9.82821539 60.9671127 10.2703586 63.2483188 10.7869418 64.4051592 11.0492301 65.5492226 11.3524854 66.7268254 11.5243467 67.3821731 11.6197697 68.011967 11.7216875 68.6353724 11.9430089 69.2002171 12.1428476 69.7458965 12.3961433 70.3187268 12.5725009 70.5705379 12.6499385 70.9889808 12.1518404 70.7062923 12.0649105 69.6953214 11.7536617 68.6944655 11.347989 67.6520847 11.1371592 66.5532727 10.9138394 65.4502018 10.7130014 64.3583106 10.460705 62.1851756 9.95861017 60.0817812 9.24968223 57.8591358 8.95941645 55.5278869 8.65516197 53.1806669 8.62518615 50.8440943 8.88997249 48.5873772 9.14626568 46.3077682 9.29664433 44.0766049 9.71930328 42.9165703 9.9386263 41.7661184 10.1864263 40.6678388 10.6090853 39.480121 11.066716 38.434546 11.6197697 37.1536634 11.856079 37.0328154 11.8785609 36.7991049 12.1848138 37.0232328 12.1888106M46.6932591 7.73194209C47.0573906 7.77978098 47.4833558 7.64367597 47.841991 7.58135066 48.5418564 7.45905829 49.2229427 7.41526213 49.9374649 7.3643912 50.5970239 7.31789989 51.2565829 7.26534449 51.918432 7.24647845 52.5834873 7.22727552 53.2471686 7.35226303 53.9044374 7.31655231 54.1403214 7.30341346 54.5882719 6.92171304 54.1907044 6.87825377 52.8303639 6.7300206 51.5373535 6.75966724 50.1710587 6.84624888 49.0035477 6.92036547 47.9335964 7.05108018 46.860439 7.39875434 46.7674595 7.42907477 46.4587493 7.70128477 46.6932591 7.73194209M70.8592914 11.0024258C72.6118786 11.8592779 74.1678748 13.0149703 75.8734057 13.9596233 77.663115 14.9508213 79.3351836 16.0314069 80.7301426 17.5584019 82.0586998 19.0124058 83.2596822 20.7536138 84.1338843 22.5228546 85.0655998 24.4100449 85.7285713 26.3919119 86.4171624 28.3764236 86.8066843 29.4982651 87.0545144 30.6804036 87.2877047 31.843501 87.5454688 33.1277212 87.6385358 34.4235777 87.8555178 35.7109715 87.8952543 35.9447546 88.22674 35.6956328 88.2200461 35.5343119 88.0249206 31.1818207 86.649307 26.8420237 84.8282267 22.9274792 83.959253 21.0577434 83.0458372 19.2578252 81.7340111 17.6620704 80.3965654 16.0345804 78.7956042 14.9100943 77.0644539 13.76022 76.1285556 13.1387378 75.1733119 12.5431727 74.2149312 11.958715 73.2664845 11.3800754 72.169549 10.8331711 71.0694764 10.646462 70.9340587 10.6231894 70.6877972 10.9188563 70.8592914 11.0024258M87.8491741 37.9836218C87.6726715 40.1741476 87.7806806 42.3662214 87.6932196 44.5603593 87.6031242 46.8365451 87.3939554 49.0766093 86.9750911 51.3192535 86.5730866 53.4726255 85.8770868 55.5836834 85.2479999 57.6818406 84.6220742 59.7696774 83.9181713 61.8879596 82.9139505 63.8344056 82.3886577 64.8530388 81.6826472 65.6972555 80.9613575 66.5843023 80.2026597 67.5167593 79.5287886 68.5070111 78.6457487 69.3372952 78.3954838 69.5726026 78.6499636 69.8233907 78.8870567 69.5741506 79.5804222 68.8444914 80.2616695 68.1086399 80.8812727 67.3165417 81.5198433 66.4996742 82.2511437 65.7447298 82.8501988 64.898965 84.0973083 63.1408681 84.7875125 60.9983327 85.4935229 58.9930599 86.2617044 56.8118226 86.9113394 54.6754795 87.2801508 52.3931013 87.6394785 50.170066 87.9145064 47.9387744 88.0757297 45.693034 88.2632966 43.0798838 88.2306305 40.4440286 88.1837388 37.8262342 88.1800506 37.6162121 87.8602385 37.8484233 87.8491741 37.9836218M76.3611469 69.7553226C75.5192594 70.5505933 74.732586 71.3853414 73.7924277 72.0364335 72.7843916 72.735013 71.7343117 73.3426227 70.6634633 73.9078942 70.1057509 74.2025448 69.5449991 74.4771707 68.9649984 74.7111748 68.4868145 74.9045571 68.038517 75.2180883 67.5390579 75.3239337 67.1449614 75.4080378 66.8830746 75.4806992 66.5548297 75.734156 66.2002441 76.0082097 65.9712831 76.0299509 65.5736407 76.0728612 65.3370815 76.0986074 65.3092212 76.1151994 65.0858323 76.2124627 65.03771 76.2336318 64.9333605 76.422437 65.0417624 76.4109943 65.4920861 76.3606462 65.9393704 76.555745 66.3815893 76.3686561 66.5755982 76.2868405 66.74276 76.1192043 66.9413279 76.0522643 67.171302 75.9744536 67.435215 75.9893292 67.6722808 75.9395533 68.8216446 75.6941064 69.8534886 75.0796311 70.8777343 74.4691607 71.8872901 73.8678446 72.8948197 73.2516528 73.8364976 72.5204615 74.7781756 71.7892702 75.7765872 71.0391984 76.5298283 70.0562668 76.6797674 69.8605959 76.6053044 69.5247513 76.3611469 69.7553226M33.9517268 31.2802633C31.9617791 30.7395658 29.6864384 30.8516551 27.9495541 32.0029726 26.2544754 33.1260009 25.3118979 34.891141 24.6123505 36.6920428 23.0694443 40.6605388 22.8503828 45.41366 24.6836988 49.335719 25.4317407 50.9364613 26.5972815 52.4485997 28.1647137 53.3880151 29.7917886 54.3631922 31.6919935 54.4416547 33.4333371 53.6847849 36.7889352 52.2249548 38.6094307 48.7603271 39.4037376 45.4803799 39.6462102 44.4790485 39.7900215 43.4713121 39.8273679 42.4432929 39.8702883 41.2700912 39.6601454 40.2004388 39.3870153 39.0656678 38.8240329 36.7251359 37.6657384 34.5794259 36.1495878 32.6659009 36.0258432 32.5089759 35.6585111 32.8484464 35.7828131 33.0171142 36.9260576 34.5692845 37.9004073 36.3317557 38.5692973 38.1203811 39.2649429 39.9799964 39.5023988 41.9324858 39.1590353 43.8983191 38.641203 46.8601461 37.4171343 50.2794044 34.8491542 52.1859905 33.4344519 53.2374951 31.7053713 53.7162767 29.9846518 53.1029879 28.4484345 52.5553515 27.2304974 51.3490568 26.3743182 50.0397467 24.3035463 46.8740238 24.0214977 42.7235162 24.779573 39.1387927 25.1948422 37.1756282 25.8765526 34.9669347 27.2745326 33.4259733 28.9846613 31.5402038 31.3084966 31.8070832 33.6613171 31.7473022 33.8196211 31.7430321 34.220955 31.353922 33.9517268 31.2802633"/>
    <path fill="#000" d="M28.1927496 46.2742701C27.6766953 44.171345 27.5185124 41.7846206 27.905899 39.6322414 28.2250318 37.85695 29.4047162 35.538787 31.124436 35.7427853 32.5526935 35.911941 33.2712034 37.7928844 33.6544395 39.2545915 34.194936 41.3170541 34.3738717 43.5840771 34.197703 45.7358943 34.0934776 47.0054047 33.8628903 48.3670796 33.3565207 49.4966572 33.0844277 50.1030324 32.709954 50.6228629 32.0905966 50.5587973 31.5095168 50.4981036 31.0206718 49.9709674 30.5304432 49.6405238 30.331677 49.5067728 29.9069353 50.0586361 30.1029345 50.2536428 30.8537266 50.9993888 31.7995955 51.6501604 32.754688 51.0628924 33.5935644 50.5475578 34.0639624 49.4871036 34.3646482 48.4502525 35.1661695 45.6886881 35.1472614 42.6230931 34.617833 39.7884715 34.2811756 37.9856432 33.6023267 35.4927047 31.946249 34.9503951 30.0914051 34.3423339 28.4832895 36.3283674 27.7942948 38.2154925 27.3418826 39.4540941 27.2321231 40.8331903 27.2551818 42.174634 27.2810076 43.6689359 27.4424186 45.1430066 27.8833015 46.54402 27.9464824 46.7452084 28.2347165 46.4451117 28.1927496 46.2742701M29.067286 29.0380084C28.2303466 29.2464472 27.3789928 29.9359395 26.714126 30.5479965 26.0434033 31.1648269 25.4465547 31.9020533 24.95331 32.7188364 23.888442 34.4812848 23.2695212 36.7582005 22.8569074 38.8457709 22.3812303 41.2531598 22.2821309 43.8228445 22.5897895 46.2710724 22.7361863 47.4368448 22.9528536 48.5787501 23.2078093 49.7174731 23.4771795 50.9214327 23.7627659 52.0739456 24.2695242 53.1723598 24.3465514 53.3383683 24.6109666 53.077422 24.5497052 52.9363413 23.668171 50.913477 23.3924946 48.5469274 23.2136652 46.3076686 23.0267277 43.9671075 23.1240253 41.654126 23.5051075 39.345918 23.8289823 37.3840473 24.317272 35.3033717 25.0988059 33.5212994 25.5294378 32.5400988 26.1213314 31.6750512 26.848811 30.9760121 27.5375518 30.3135691 28.3199865 29.9104813 29.0713401 29.3737381 29.1726918 29.3016066 29.2744939 28.9860313 29.067286 29.0380084M35.4666331 33.7017673C37.4911109 31.0975603 39.7085452 28.7518631 42.3729083 26.8154288 45.1405291 24.8041487 48.1819394 23.12357 51.3401666 21.8426994 54.6152107 20.5145857 58.0477489 19.6987141 61.5235719 19.1461296 65.0609324 18.5839903 68.7166743 18.013358 72.3009701 18.3939565 76.1408028 18.8010961 79.6807708 20.5713835 82.6934984 22.9653854 82.9844975 23.1968233 83.5847485 22.5449753 83.3120019 22.3363627 80.5751498 20.2417438 77.6865401 18.4380146 74.2800771 17.773427 70.6133837 17.0578805 66.8549056 17.5642836 63.1975992 18.0855496 59.5309058 18.6084081 55.9116692 19.3451874 52.4264591 20.6414518 49.0742325 21.8883499 45.9264354 23.5970622 42.9616861 25.612058 39.878034 27.7082694 37.2162784 30.4807465 35.0723762 33.5536682 34.8142318 33.9236504 35.2611606 33.966116 35.4666331 33.7017673"/>
    <path fill="#000" d="M37.1870215 29.9097272C38.5843646 28.1674673 40.5114298 26.9845592 42.2497912 25.6110913 43.1267696 24.9187074 43.9626803 24.1862597 44.9150362 23.5919806 45.9609642 22.9396604 47.1129406 22.4614635 48.2092935 21.8985164 49.2760153 21.3499511 50.3011495 20.7459128 51.4146574 20.2892887 52.5370026 19.8290691 53.6972965 19.4690089 54.8544713 19.1063806 55.9856538 18.752484 57.1022807 18.3631465 58.264654 18.1207094 59.4369043 17.8762177 60.6257897 17.7288036 61.8099964 17.5587895 63.2567249 17.3512798 64.6691436 17.072888 66.1351063 17.0199833 67.5558424 16.9686195 68.9765786 17.1006244 70.3978347 17.0492606 70.634884 17.0405288 71.0044937 16.5094272 70.6613961 16.5073726 69.327474 16.4996681 67.9935519 16.4611452 66.6596298 16.4518997 65.3802914 16.4431679 64.1622947 16.6352685 62.9032303 16.8273691 61.6467651 17.0194696 60.3809427 17.1468519 59.1281164 17.3605252 57.8700917 17.5747123 56.6780873 17.9419634 55.4637295 18.3200009 54.3231897 18.6744111 53.1790111 19.0190621 52.0592651 19.4351088 50.8615424 19.8809466 49.7672688 20.4741984 48.6340068 21.0530683 47.4945067 21.6350201 46.3030222 22.1306807 45.1941929 22.7711872 44.2153249 23.3361889 43.3622594 24.0742866 42.5029557 24.7980025 40.5821287 26.415962 38.4237326 27.7385796 36.9712858 29.8306269 36.8330071 30.0299185 37.074735 30.0494367 37.1870215 29.9097272M41.0626294 23.1780355C41.6843505 22.8545356 42.2298968 22.4513751 42.8325742 22.1045599 43.4128472 21.7708596 44.0088033 21.4629033 44.5845955 21.1219169 45.7921907 20.4073999 47.2249498 20.0285262 48.5322445 19.4786736 49.7930501 18.9482503 50.9647983 18.2313047 52.3012186 17.8538881 53.0338414 17.6469648 53.8011908 17.5886765 54.5522971 17.4502419 55.3689362 17.2991781 56.168772 17.100998 56.9652472 16.8838743 57.1814493 16.8246145 57.421176 16.3709375 57.0856706 16.4641987 56.2858348 16.6852084 55.4792777 16.891646 54.6631988 17.0645679 53.9053711 17.2258321 53.1268195 17.3132645 52.3908361 17.5430174 52.0015603 17.664937 51.64085 17.8101719 51.2330906 17.8878896 50.9199896 17.9481208 50.6052083 17.9748363 50.2977084 18.0603258 49.6306184 18.2458767 49.0391432 18.5926919 48.416862 18.8647038 47.1370127 19.4247569 45.7837891 19.8662905 44.6058796 20.589065 43.3663582 21.3502126 42.138599 22.0827018 40.942766 22.8972803 40.7276842 23.0439725 40.7484082 23.3417284 41.0626294 23.1780355M35.0106457 52.6877257C36.3264388 54.8778333 38.0766326 57.0413303 40.2895575 58.4592267 42.8288074 60.0864937 45.8627914 61.1649787 48.8269984 61.8222118 50.3998644 62.171665 51.9963391 62.3343415 53.5922892 62.5547581 55.3377612 62.7962624 57.0769376 63.0799421 58.8250328 63.3048775 62.2671855 63.7467149 65.7896078 64.0745784 69.2490735 63.7221126 71.0365166 63.5393526 72.7583799 63.4178473 74.5064751 62.9629556 76.1506919 62.5346746 77.7330014 61.9266461 79.2617977 61.2121749 79.5230677 61.0896655 79.6594737 60.5524314 79.2549774 60.7382039 76.4240285 62.0421263 73.3926678 62.9097343 70.2500836 63.1316572 69.4416158 63.1883931 68.6599046 63.0498169 67.8556339 63.0292313 67.0156878 63.0086456 66.1767909 63.0071394 65.3373695 62.9689807 63.6921034 62.8931654 62.0489359 62.7530829 60.4125886 62.5738375 58.7452877 62.3915795 57.0874303 62.1390293 55.427999 61.8990313 53.7780112 61.6600374 52.1075625 61.5124235 50.4675428 61.2151875 47.466611 60.670422 44.4966329 59.6587148 41.8188784 58.2473456 40.515152 57.5609913 39.3163532 56.6938854 38.2492386 55.703768 37.1642864 54.6965796 36.3075519 53.5101457 35.4801971 52.3056367 35.3548085 52.1238809 34.9030948 52.5089823 35.0106457 52.6877257M79.8055208 59.9460195C79.9160344 59.8835794 80.2296543 59.8746594 80.3778024 59.8291674 80.6746959 59.7381833 80.9536682 59.6168712 81.21233 59.4750431 81.8700357 59.1151209 82.4178251 58.6709046 83.0361043 58.2793164 83.8939293 57.735642 85.1788748 57.1487056 85.3150755 56.243325 85.3467361 56.0292449 84.9381342 56.169289 84.8515154 56.235743 84.4333555 56.5564172 84.1615516 56.9578175 83.7350286 57.2851817 83.3126872 57.6098699 82.8246349 57.8814841 82.3963197 58.2003743 81.9094622 58.5629725 81.4064756 58.9456408 80.8252334 59.226621 80.4273842 59.4192931 79.9381372 59.4540811 79.6089856 59.7140993 79.4172295 59.8657394 79.5169905 60.1088096 79.8055208 59.9460195"/>
    <path fill="#000" d="M39.8705106 59.405145C41.2653106 60.7183318 42.9488838 61.618701 44.6569899 62.468739 46.5664706 63.4199479 48.5275727 64.0142627 50.6077618 64.4713107 51.6304789 64.6960217 52.648596 64.9410685 53.6886906 65.0732515 54.7870509 65.2135688 55.8925666 65.2623748 56.9960379 65.339651 58.0903094 65.4159104 59.1764032 65.5852062 60.272208 65.6421466 61.3623906 65.6980701 62.4648397 65.6573984 63.5570668 65.6807847 65.8616301 65.7295907 68.4232782 66.1241059 70.6118211 65.2044176 70.7513522 65.1459521 70.9322827 64.787533 70.6578204 64.838881 66.5628633 65.6101176 62.382041 64.9344594 58.2814619 64.5211335 56.1332961 64.3040484 54.0244852 64.2404989 51.9049412 63.7890433 49.9325948 63.3691083 47.9525819 62.9359549 46.1110779 62.0935428 44.1055098 61.1758881 42.0283873 60.33856 40.2206161 59.0563854 40.0585965 58.9419963 39.7202463 59.2638109 39.8705106 59.405145M38.9091598 62.3663103C39.2552502 62.6585052 39.5214736 63.0100038 39.8963162 63.2577207 40.344104 63.5536221 40.730128 63.9539228 41.1747211 64.2578548 42.0846728 64.8780738 42.9653399 65.5433885 43.8694346 66.1716382 44.7905677 66.8122429 45.7846459 66.8239801 46.8170604 67.0581066 47.8569291 67.2947041 48.9777297 67.7969333 50.0442207 67.7370117 50.2928734 67.7234213 50.7012602 67.0636664 50.32695 67.0544001 49.1891111 67.0259837 48.0092089 66.5577307 46.8947976 66.2853038 45.9071087 66.0431466 45.0099358 65.9010646 44.1399176 65.2647841 43.3715968 64.7032511 42.5505638 64.2813292 41.766802 63.7543902 41.3142222 63.4504581 40.9191466 63.0606591 40.4734886 62.7468431 40.0746859 62.46515 39.6710912 62.0907947 39.2211736 61.9400642 39.0806077 61.8924976 38.7456986 62.2279348 38.9091598 62.3663103M21.8547242 64.9232357C20.7000529 65.7490506 20.369606 67.4579623 20.5075175 68.7749168 20.6892363 70.5161822 21.6713829 71.9010265 22.9439551 73.0742458 24.2397829 74.269211 25.8238729 75.3554466 27.4166162 76.1329961 29.2987034 77.051629 31.4311947 77.0410212 33.3927838 77.7268135 35.7215962 78.5404294 38.2061676 78.6035457 40.5425517 79.3498022 40.6918207 79.3975372 40.8946318 79.0909727 40.7523936 79.0618013 38.3419159 78.5727831 35.9584796 78.0126929 33.6426471 77.1921819 32.5242114 76.7959817 31.3619685 76.6156497 30.1997256 76.3897042 28.9990838 76.157394 27.9752933 75.622232 26.9612377 74.9693238 25.1846123 73.8252759 23.3322708 72.6218244 22.2105901 70.7994096 21.1229817 69.033216 20.9645186 66.9822038 22.1954469 65.2573805 22.4112379 64.955059 22.1662421 64.7004726 21.8547242 64.9232357"/>
    <path fill="#000" d="M20.4785099 69.0176588C20.6630344 70.9536804 21.1157689 72.8139947 22.2941263 74.3981073 23.501072 76.0198126 25.1992165 77.4217053 26.9275087 78.4481936 28.9234912 79.6334065 31.248499 80.2046059 33.4986574 80.6786911 35.8501743 81.1741831 38.2391159 81.6247728 40.6280575 81.8827002 42.0538335 82.0367257 43.456739 82.229388 44.8934305 82.2523613 46.3103702 82.2748125 47.7267901 82.2220783 49.14321 82.2460959 49.3693174 82.2497507 49.6915854 81.7485153 49.3838714 81.7432941 47.014162 81.703613 44.6205423 81.8957532 42.2669462 81.5339239 41.0594808 81.347527 39.8811234 80.9992729 38.6793756 80.7773718 37.494261 80.5586034 36.3044682 80.3669853 35.1214328 80.1377746 32.9539205 79.7169457 30.7323504 79.2376393 28.7062202 78.3333272 26.7887255 77.4770501 25.1404806 76.1409445 23.6684435 74.6565568 22.0415098 73.0155331 21.4224433 70.9714325 20.8756273 68.7800941 20.8246882 68.5743787 20.4644757 68.8704209 20.4785099 69.0176588M20.9130712 66.158844C20.584997 67.1240384 20.3430422 68.01679 19.6674143 68.7976814 18.9569285 69.6185228 18.0306314 70.2316237 17.0243662 70.5714659 16.1047331 70.8814787 15.167671 71.0817619 14.2623911 71.4461068 13.4288775 71.781155 12.60049 72.1428366 11.8433562 72.6419465 10.4910752 73.5325675 9.53248325 74.9760978 9.91950833 76.6987462 10.2486078 78.165714 10.9580684 79.6726318 12.3775021 80.3134315 12.5102696 80.3741556 12.7450478 80.1174096 12.6414993 79.9911673 12.138623 79.3770011 11.3989181 79.0424856 10.9062941 78.4075453 10.2844909 77.6064126 10.1660766 76.5570565 10.3249876 75.563098 10.4941509 74.5030886 10.9754973 73.8026302 11.8566842 73.2438614 12.6286839 72.7548721 13.4960302 72.44699 14.3474854 72.1465653 16.0944807 71.530801 17.8025173 71.243693 19.2711621 69.9945864 20.39943 69.0347186 21.4026195 67.5176801 21.4456792 65.9553648 21.4564442 65.5803665 20.9622823 66.0144909 20.9130712 66.158844M71.3992004 72.8885995C71.3973789 72.850036 71.388879 72.8114726 71.3822005 72.7735212 71.2316307 72.9510356 71.0810608 73.12855 70.930491 73.3060644 71.8260173 73.4621547 72.5788665 73.5203059 73.3881794 73.99531 74.2193493 74.4819443 74.8392356 75.1638444 75.5113357 75.8390113 75.9011173 76.2313793 76.6011456 76.5900808 76.861 77.0816121 77.2677815 77.8510452 75.9071887 77.6729187 75.4597291 77.8987905 75.3710871 77.9434751 75.0505191 78.3119705 75.2909451 78.3597158 75.8549749 78.4723456 76.8045364 78.2256618 77.2392461 77.8369665 77.9034534 77.2432114 77.461458 76.5815112 76.9502491 76.0642709 75.4123724 74.5101017 73.7063189 72.0420394 71.1569529 72.6853761 70.6159943 72.8218786 70.7289217 73.6139601 71.2413449 73.1530347 71.3142013 73.0875381 71.4052717 72.9957203 71.3992004 72.8885995M19.5701199 84.5752026C20.9841963 85.2594101 22.3791348 85.9822801 23.8421191 86.5417135 25.3492269 87.1181349 26.9291648 87.4555523 28.4889017 87.8087862 31.6365507 88.5211118 34.8006795 89.0500839 37.9972364 89.4115189 43.8874493 90.0775668 49.8021162 90.0435908 55.7151882 89.9475205 58.7538576 89.8983138 61.7994379 89.7852556 64.814185 89.3324367 64.9236961 89.3160345 65.0927474 89.0026346 64.9205065 89.0131789 59.7543432 89.3336083 54.5249186 89.3710991 49.3513129 89.2094199 42.9443773 89.0096641 36.5422262 88.3477168 30.2145002 87.2235778 28.3910859 86.9002195 26.5384332 86.5727605 24.7602056 86.0121556 23.0888311 85.4855266 21.4599852 84.810106 19.8141279 84.1997085 19.6620881 84.1434723 19.3893733 84.488505 19.5701199 84.5752026M79.0448075 55.2600096C78.3402857 55.4747938 77.6352908 55.8207478 77.5780395 56.7525244 77.5188956 57.7093852 78.3014873 58.1906899 79.074616 58.0360035 79.7933323 57.8922915 80.3488115 57.2238999 80.463314 56.4321772 80.5669341 55.71623 80.1169675 54.9229396 79.406768 55.2286543 79.2056788 55.3154041 78.9269929 55.7282496 79.1815481 55.9033169 79.3107183 55.9926797 79.456922 55.9900667 79.5662198 56.1248948 79.6655815 56.2477032 79.7166818 56.4332224 79.7176281 56.5962702 79.7195207 56.9500631 79.5629078 57.1716409 79.2506281 57.2197192 78.8550739 57.2808621 78.4387011 57.1517826 78.2939169 56.6950396 78.1122269 56.120714 78.6080891 55.9106332 78.9922877 55.7245914 79.1479544 55.648816 79.3514093 55.1664662 79.0448075 55.2600096M77.4725713 24.2672708C77.2694898 24.6346196 77.2502734 25.0396744 77.2201388 25.4795788 77.1646735 26.2902598 76.8816696 26.9369764 76.6196289 27.6579626 76.5890575 27.7425157 76.6152615 27.8196418 76.6912533 27.8019313 77.4074979 27.6408235 77.4088081 30.3373804 77.5070733 30.9161118 77.5328406 31.06865 77.726314 30.8441274 77.7254405 30.745863 77.7175793 30.0197351 77.6394039 29.2559011 77.7621262 28.5400566 77.8769874 27.8676313 78.226375 27.4757165 78.5133095 26.9352625 78.5438809 26.8769895 78.570085 26.7518738 78.4857953 26.7478747 77.7577589 26.7130251 77.7057875 25.7338093 77.642461 24.9962553 77.6271753 24.8134379 77.4367591 25.0179649 77.4310815 25.1293692 77.3843509 25.9880398 77.6009712 27.0409538 78.3770484 27.043239L78.3495341 26.8558512C78.0818159 27.3671687 77.7158324 27.7819357 77.578261 28.3938027 77.3991999 29.1902011 77.4948447 30.0700099 77.5031427 30.8852613 77.5756406 30.8287022 77.6485753 30.772143 77.7210732 30.7150126 77.6022814 30.0094516 77.6699753 27.3094669 76.7458451 27.5162791 76.7698655 27.5642687 76.7934492 27.6128296 76.8174696 27.6608191 77.0022083 27.1489304 77.228 26.654752 77.3454816 26.1062998 77.4660203 25.5447075 77.3502856 24.82315 77.6009712 24.329543 77.6804569 24.1730056 77.5367713 24.1507247 77.4725713 24.2672708M80.3691279 30.1305656C80.4335631 30.926968 80.4084776 31.6736628 79.6165649 32.0081086 79.5599997 32.0318818 79.4394913 32.2307122 79.5663941 32.2296316 79.9126714 32.2258495 80.2102535 32.1750613 80.441433 32.5062653 80.6937629 32.8671858 80.7217996 33.3729067 80.7321289 33.8078483 80.8073852 33.7678661 80.8826415 33.7278839 80.9578978 33.688442 80.9219912 33.227566 80.7709867 32.8293648 80.9087107 32.3755127 81.0213492 32.0043265 81.2259676 31.8768157 81.4148462 31.5683043 81.4438666 31.5207579 81.4782976 31.3959485 81.3853339 31.3997306 80.8403406 31.4186411 80.7886941 30.6168357 80.6391652 30.2013449 80.5968643 30.0830192 80.4276606 30.2548347 80.4330712 30.33642 80.4709453 30.8615917 80.6755637 31.6958151 81.2687604 31.6655583 81.258923 31.6093671 81.2490856 31.5531759 81.2392482 31.4964444 81.0518452 31.8233259 80.7134378 32.0243176 80.6145717 32.4133337 80.5009494 32.8563798 80.7119622 33.3675037 80.7321289 33.8078483 80.739507 33.9623742 80.9588815 33.7981229 80.9578978 33.688442 80.9524872 33.2081152 80.9131375 32.6056805 80.6047343 32.2253092 80.3597824 31.9232815 80.0061269 31.985416 79.669687 31.9929802L79.6190243 32.2145032C80.517673 31.821705 80.6352303 31.0193593 80.5304617 30.0451982 80.5186568 29.934977 80.3627336 30.0511415 80.3691279 30.1305656"/>
    <path fill="#000" d="M76.9234142 23.4895682C76.5001558 24.3880167 76.7178454 25.8585669 75.9033275 26.4918586 75.6948497 26.6535395 75.4272224 27.2301186 75.9130242 27.1520142 77.1149228 26.9604845 77.1255891 29.1484006 77.4591536 29.9010874 77.5876341 30.1911181 78.0399824 29.7717427 78.0171953 29.5593188 77.951743 28.9424439 77.9197441 28.1718478 78.275126 27.638052 78.5495409 27.2261387 78.9839505 26.937103 79.3378779 26.6022991 79.4290263 26.5157376 79.6399282 26.1426278 79.3984819 26.075468 79.0009196 25.965525 78.6062663 25.7963819 78.2979131 25.5073461 77.9774391 25.2068684 77.8722305 24.8173417 77.6579348 24.4472168 77.51297 24.1964869 77.1464369 24.5218387 77.1154077 24.7158558 76.938444 25.8212559 77.9711363 26.5729478 78.9194678 26.7624876 78.9398307 26.5868772 78.9601937 26.4112669 78.9805566 26.236154 78.526269 26.7057749 77.9871357 27.1097285 77.677328 27.7057092 77.3209765 28.3912363 77.5023037 29.1031299 77.4484873 29.8403949 77.6346628 29.7259746 77.8208383 29.6125492 78.0070138 29.4986263 77.7267809 28.3947187 77.8358681 26.2053102 76.1874391 26.384403 76.1607733 26.6087663 76.1336227 26.8326322 76.1064721 27.0564981 76.6247576 26.6988102 76.9437771 26.162527 77.0911661 25.5456521 77.2511607 24.8750494 77.177951 24.1447491 77.4193974 23.4965329 77.5827858 23.0582532 77.0485009 23.223914 76.9234142 23.4895682M80.1693734 28.4878546C80.0897818 29.2781248 80.1998456 30.8342626 79.6909145 31.3654894 79.4917082 31.5732247 79.3834637 32.1726538 79.7677772 31.9686727 80.039298 31.8253854 80.379495 33.5316933 80.42725 33.760077 80.4968357 34.091077 80.9407291 33.6036498 80.8856973 33.308941 80.7165084 32.4060432 80.8543155 31.8679336 81.3432349 31.2447276 81.4578468 31.0983117 81.5233392 30.7022381 81.2800165 30.7723174 80.9557378 30.8661738 80.9016156 30.364981 80.7860941 30.122206 80.6892198 29.9175992 80.4468067 30.2992816 80.4245211 30.4219205 80.3017227 31.0983117 80.6869458 31.5970017 81.1676787 31.389892 81.1467575 31.2328391 81.1258363 31.0751605 81.1049151 30.9174819 80.8606828 31.2572418 80.5718792 31.5901189 80.4354365 32.0443835 80.2717053 32.5906273 80.4590866 33.1293625 80.4186086 33.6912491 80.5773369 33.5867557 80.7360652 33.4816366 80.8943386 33.3771432 80.8738722 32.7282832 80.5113896 30.9400074 79.8309956 31.2722588 79.8332696 31.4856255 79.8355437 31.6983665 79.8378177 31.9117332 80.7560767 31.1164573 80.6109927 29.5252798 80.6646602 28.2381967 80.6819429 27.8308603 80.1952975 28.2344425 80.1693734 28.4878546M65.186251 44.7956215C65.1136179 44.9598127 65.0251223 45.2094624 65.1349069 45.3772143 65.272242 45.5869043 65.6178757 45.4440777 65.7668989 45.3174725 65.9363762 45.173459 66.0161057 44.9380524 65.9217661 44.7342971 65.8290962 44.5329156 65.6086922 44.4676348 65.3999762 44.552302 65.1925125 44.6365736 64.965847 44.840329 64.9971544 45.074153 65.02387 45.2707868 65.235508 45.3942269 65.4337882 45.37761 65.6763161 45.356641 65.9029817 45.1422033 65.9418028 44.9170834 65.9735277 44.7315276 65.8541421 44.5827664 65.6491831 44.604131 65.3966367 44.630639 65.2188107 44.88108 65.2367603 45.110552 65.2492833 45.272765 65.4312836 45.3028337 65.5732105 45.2553568 65.7502016 45.1964062 65.830766 45.0523927 65.8908762 44.8949275L65.5239535 44.9819686C65.5143525 45.0539753 65.5076736 45.0955177 65.5172746 45.1667331 65.5498343 45.4108438 65.8812752 45.1319167 65.8975551 44.9938378 65.910078 44.9463608 65.9096606 44.8992795 65.8963028 44.8525938 65.8624908 44.6302434 65.4901415 44.8628805 65.5181094 45.0246978 65.5836462 44.9954204 65.5990912 44.9598127 65.5640269 44.9182703 65.5748802 44.8806844 65.5707059 44.8723759 65.5519214 44.8937405 65.5181094 44.9103575 65.5126828 44.9166877 65.5364764 44.913127 65.5506691 44.9135226 65.5636095 44.9170834 65.575715 44.9234136 65.5978389 44.9613952 65.6487656 45.016785 65.588238 45.0591186 65.4575818 45.1509074 65.1712235 44.8304379 65.4204304 44.8241077 65.5110131 44.8217338 65.5719582 44.9004664 65.5974215 44.9744514 65.6103619 45.0128286 65.6199628 45.0614925 65.6086922 45.1014523 65.5932472 45.1560508 65.62205 45.1125302 65.5765499 45.1291472 65.321499 45.2229142 65.4066551 44.8846408 65.4509029 44.7643658 65.5139351 44.5914705 65.229664 44.6975024 65.186251 44.7956215M65.0881188 37.1619087C65.0121314 37.3631405 64.8885375 37.5629797 65.1677682 37.7001515 65.4717177 37.8491606 65.8342598 37.5678538 65.9203178 37.3554812 65.9917276 37.17862 65.9587693 37.0623373 65.9148248 36.8861724 65.8397529 36.5784061 65.2318539 36.9913143 65.1622751 37.0971524L65.0533294 37.2628728C64.9654404 37.3958668 64.9947367 37.556713 65.2144592 37.5762095 65.4424213 37.595706 65.676792 37.405615 65.7683431 37.2691395L65.8800354 37.1041155C65.62827 37.1751385 65.3774201 37.2447689 65.1265702 37.3157918 65.149458 37.3791555 65.147627 37.4432154 65.1219927 37.5079717L65.8736268 37.1633013C65.7454553 37.0985451 65.7601035 37.0379666 65.7317227 36.9258617 65.6621439 36.6529106 65.1284012 37.0546779 65.0881188 37.1619087M67.350937 48.2355144C67.7254145 48.319204 68.1831091 48.4738095 68.5291609 48.2178956 68.9283564 47.9232202 68.9506025 47.3087625 68.7079543 46.8960407 68.2284254 46.0798471 66.9797553 46.4679025 66.9307313 47.4109519 66.9084851 47.8430544 67.2578326 48.1967529 67.6537323 48.2073243 68.0566354 48.2178956 68.4232855 47.8430544 68.5180378 47.439142 68.6066106 47.0647413 68.4455317 46.6418887 68.0566354 46.5894726 67.6529084 46.5352946 67.2755471 46.8185178 67.0992255 47.1920376 66.9603928 47.485832 66.9023056 47.9311487 67.1754393 48.1610748 67.5037765 48.4368099 67.9837174 48.1998362 68.2259536 47.9144107 68.4430599 47.6584968 68.6029029 47.2004065 68.2972238 46.9453735 67.9746541 46.6762455 67.5528005 46.8889932 67.3735951 47.230799 67.2392941 47.4871534 67.1968616 47.9020775 67.4090243 48.1306822 67.6685631 48.4103816 68.0887688 48.1553486 68.2539674 47.8884229 68.4290531 47.6056403 68.455007 47.1484309 68.2407844 46.87666 67.9969003 46.567449 67.559392 46.8145535 67.4386858 47.1325739 67.2726634 47.5717239 67.6463169 48.1830983 68.1015398 47.9298272 68.3202939 47.8078166 68.5221575 47.5519027 68.5489353 47.2836556 68.5699456 47.0744317 68.4496514 46.8356961 68.2317212 46.8401009 67.8230505 46.8484698 67.4580483 47.5787715 67.6772144 47.9412795 67.8041 48.1518249 68.0298576 48.1853007 68.2317212 48.0769447 68.479313 47.9430414 68.5963114 47.6809609 68.6230893 47.3999401 68.6346243 47.2770485 68.5135062 47.2515012 68.430289 47.2664772 68.3038153 47.2898222 68.2053553 47.4171185 68.1452082 47.5276768 67.9433447 47.8981133 68.136145 48.3795486 68.5666499 48.1438964 68.6766449 48.0831113 68.9922112 47.7126748 68.7458552 47.6236996 68.4039231 47.500808 68.1209022 47.732496 67.9371652 48.0311357 67.8741343 48.134206 67.8160471 48.2989423 67.9458165 48.3702987 68.07435 48.4416551 68.2407844 48.2681093 68.3095828 48.1786936 68.3334769 48.1751698 68.3573709 48.1716461 68.381265 48.1681223 68.4410001 47.995017 68.5011472 47.8219117 68.5608823 47.648366 68.5876601 47.6184139 68.5979593 47.5800929 68.5917798 47.5334029 68.4323488 47.5761287 68.2733298 47.6188544 68.1143107 47.6611397 68.1250219 47.647485 68.136145 47.6342709 68.1472681 47.6206163 68.2008237 47.5814143 68.1917604 47.5417719 68.1192543 47.501689 68.1176065 47.4787845 68.1118389 47.4589633 68.110603 47.4360587 68.1060714 47.347524 68.2510836 47.1488713 68.0203824 47.3845236 68.0067875 47.3990591 68.1077193 47.5395695 67.9911328 47.4131542 67.9800097 47.4012615 67.841177 47.1004195 67.8638352 47.1043837 67.6533203 47.0713484 67.8918489 47.3528096 67.9017361 47.3761546 67.9375772 47.4598442 67.988249 47.6734729 67.9297498 47.7602457 67.8329377 47.9020775 67.6426092 47.4972843 67.7118196 47.339155 67.7497205 47.2523821 67.8003923 47.261632 67.9128592 47.3299051 68.0483961 47.4127138 68.0817654 47.5770096 67.9833054 47.7078296 67.7773222 47.9826838 67.3958413 47.7800669 67.3979012 47.4607251 67.399961 47.1356572 67.7031683 46.869172 67.989073 47.0863244 68.3009315 47.3228576 68.1167825 47.8818159 67.7212948 47.7813884 67.3764789 47.694175 67.1012853 47.1598831 67.4679354 46.8982431 67.8448847 46.6295555 68.380441 46.9784089 68.5378122 47.3523692 68.6927116 47.7197224 68.5464635 48.0804685 68.1645706 48.0813494 67.9495242 48.0817899 67.7353016 48.0201239 67.5256107 47.9747553 67.4094362 47.9496485 67.2252872 48.2077647 67.350937 48.2355144"/>
    <path fill="#FFF" d="M0.834461203,43.0788666 C1.1447678,43.1691333 1.40241631,43.0413614 1.70896161,43.010213 C1.90329504,42.9898712 2.06189619,42.8258655 2.08383706,42.6300758 C2.13900267,42.119624 1.87508535,41.6994389 1.32844423,41.7731779 C0.867059068,41.8361103 0.374329804,42.1704785 0.246445873,42.6427894 C0.159936155,42.9619013 0.27653621,43.3439455 0.586215925,43.4907878 C0.978017184,43.6764066 1.37984856,43.378908 1.62495942,43.0884018 C1.90956386,42.7508552 1.95846065,42.2677377 1.5560024,42.0026587 C1.15918609,41.7413939 0.671471879,41.9257413 0.404420141,42.2880795 C0.270894272,42.4698842 0.0245296403,42.8690919 0.241430817,43.0807736 C0.409435197,43.245415 0.726637496,43.1411633 0.907806399,43.0610675 C1.20181406,42.9307529 1.52089701,42.6809303 1.60615296,42.3510119 C1.70896161,41.9568897 1.3572808,41.7433009 1.04321291,41.6250643 C0.88022359,41.5634032 0.685890165,41.7496577 0.625709492,41.8818794 C0.509736319,42.1342447 0.235788879,42.6758448 0.481526629,42.9377454 C0.667710587,43.1367135 1.0018387,42.9822431 1.18551513,42.860828 C1.40805825,42.71335 1.64564653,42.4749697 1.69266268,42.1978128 C1.75221647,41.8437385 1.42435718,41.7318587 1.14226027,41.6822755 C0.986793532,41.6549413 0.776161176,41.8583592 0.72789126,41.9880381 C0.60314174,42.3243133 0.593111627,42.6389754 0.771773001,42.9580872 C0.924105331,43.2295229 1.29960766,42.9154966 1.38047544,42.7298777 C1.50835937,42.4368288 1.72087237,42.2384964 1.72275302,41.8971357 C1.72275302,41.7992408 1.64564653,41.7019817 1.54158412,41.7140596 C1.50271743,41.7178737 1.46385075,41.7204164 1.42498406,41.7210521 C1.18175384,41.7229591 0.883358,42.000116 0.89589564,42.2569311 C0.909060163,42.5226457 0.931001033,42.8093378 1.00748064,43.0648816 C1.12408069,43.4539183 1.69705085,42.8735416 1.70081215,42.6453322 C1.70520032,42.3770748 1.65316911,42.0954682 1.59737661,41.8329319 L1.16670867,42.4342861 C1.207456,42.4247509 1.24820333,42.4158513 1.28957755,42.4094945 C1.20181406,42.3516476 1.1134237,42.2944363 1.02566022,42.237225 C1.03255592,42.3923312 0.857028955,42.57795 0.799982692,42.7222496 C0.991181706,42.6275331 1.1830076,42.5334523 1.37357974,42.4387359 C1.26638291,42.2702804 1.25384527,42.1081818 1.29145819,41.9168418 C1.14414092,42.0452494 0.996196763,42.1730212 0.848252607,42.3014288 C0.936642971,42.2988861 1.02315269,42.2976147 1.10840864,42.3230419 C1.14226027,42.3325771 1.17485814,42.3923312 1.15605168,42.3560973 C1.16482802,42.3732607 1.12909575,42.3840673 1.16106673,42.3580044 C1.07706454,42.4253866 1.14037963,42.4063161 1.03945162,42.4609847 C1.03694409,42.4622561 0.950434376,42.5099321 0.937896735,42.460349 C0.899656932,42.3115997 1.02189893,42.0446137 1.09273659,41.8882362 C0.953568786,41.9740531 0.814400978,42.0592343 0.675233171,42.1450513 C0.832580557,42.2028982 1.05575055,42.2849011 1.10088606,42.4558992 C1.10527423,42.4724269 1.10213982,42.4654345 1.07204949,42.490226 C1.06515378,42.4959471 0.980524712,42.5518871 0.934762325,42.5715932 C0.857028955,42.6059199 0.725383732,42.6357969 0.702189098,42.6129032 C0.683382637,42.5944777 0.689651458,42.6510533 0.701562216,42.5989275 C0.727264378,42.4851406 0.78995258,42.4400072 0.892134348,42.428565 C1.09273659,42.4037734 1.40555072,42.6624955 1.29083131,42.8741773 C1.18175384,43.0737811 0.945419319,42.992414 0.841983787,42.8392148 C0.717234266,42.6542317 0.749205249,42.4819622 0.939150499,42.3961452 C1.34160875,42.2143405 1.55788305,42.4787838 1.57731639,42.8773557 C1.68263257,42.7527622 1.78732186,42.6288045 1.89201116,42.5048467 C1.653796,42.563965 1.38423673,42.7025434 1.13536457,42.6523247 C0.947926847,42.6141838 0.605022386,43.0121201 0.834461203,43.0788666"/>
    <path fill="#E26DB6" d="M75.8310138,5.08260148 C75.8087558,6.90543472 75.7594009,8.72826795 75.7961751,10.5511012 C75.8010138,10.780884 76.4474654,10.5378763 76.4503687,10.3725649 C76.4871429,8.5557931 76.437788,6.73902128 76.41553,4.92224947 C76.4135945,4.71836546 75.8329493,4.93327022 75.8310138,5.08260148"/>
    <path fill="#E26DB6" d="M75.7648415 7.74102662C76.2855739 7.74277696 76.8078274 7.76115559 77.3103062 7.49947894 77.4340245 7.43471615 77.7372358 6.75033105 77.4644471 6.77483589 76.9766724 6.8194697 76.4934612 6.87898145 76.0046725 6.88160697 75.7805598 6.88248214 75.459095 7.74015145 75.7648415 7.74102662M9.18358283 59.8937581C9.40893073 60.1314339 9.76548555 59.9369106 9.8251847 59.6392258 9.89866058 59.2697325 9.43254797 59.1945528 9.19145525 59.3203018 9.04778366 59.3951445 8.8988638 59.5411213 8.86934224 59.71036 8.83785258 59.8920724 8.9916927 59.9608467 9.14487679 59.9584868 9.33676692 59.9557898 9.52537688 59.8455486 9.61361353 59.6675446 9.70611442 59.4811123 9.64543121 59.2983885 9.51619239 59.1503889 9.48207859 59.1112819 9.40958676 59.1237557 9.37120874 59.1470176 9.19571947 59.2528761 8.87196638 59.5276361 9.0674647 59.7619407 9.19932766 59.9203913 9.43910832 59.8873526 9.57818766 59.7622778 9.67757691 59.6732758 9.73399589 59.548201 9.72185925 59.4116638 9.71070666 59.2859147 9.65067949 59.0917285 9.52308075 59.0452047 9.21113628 58.9315922 8.84802111 59.5997817 9.17767852 59.720811 9.29346863 59.7632892 9.42106737 59.6078728 9.42762771 59.5013401 9.42992384 59.4575133 9.42336349 59.3334499 9.40237038 59.3199647 9.36825658 59.3412038 9.3344708 59.3631172 9.300357 59.3843563 9.30593329 59.3924474 9.31118157 59.3998643 9.31675786 59.4076182 9.31774191 59.4315544 9.34890356 59.4720098 9.35874408 59.4993173 9.35972813 59.5023514 9.39909021 59.6233807 9.38728158 59.6243921 9.39121779 59.624055 9.43517211 59.561349 9.44927686 59.5475267 9.48371868 59.514151 9.48142256 59.5333673 9.47584626 59.5256133 9.47715833 59.5269618 9.38170529 59.4841465 9.36071218 59.4720098 9.35611994 59.4693128 9.34201519 59.4254861 9.34529537 59.4561648 9.34857554 59.4888663 9.31282165 59.4858321 9.37481693 59.4480737 9.32659838 59.4470623 9.27837983 59.4460509 9.22983327 59.4447024 9.26099492 59.4801009 9.29051648 59.5144881 9.30855743 59.558652 9.31478976 59.5738228 9.31839795 59.616301 9.32758243 59.626752 9.32266217 59.6591164 9.33053459 59.6587792 9.3515277 59.6257406 9.38400141 59.5997817 9.38301736 59.5947248 9.34857554 59.6109069 9.33086261 59.6028158 9.25804276 59.6092213 9.24032983 59.6112441 9.22589706 59.6125926 9.20490396 59.5916906 9.19703154 59.592702 9.15471731 59.5974218 9.20785611 59.6227065 9.18850309 59.626752 9.20227982 59.6237178 9.26427509 59.5960733 9.30888545 59.5997817 9.36005615 59.6038272 9.42795573 59.6254035 9.46698979 59.6614763 9.47223807 59.6661961 9.51652041 59.7403644 9.50766394 59.7386788 9.50569584 59.7380045 9.54965016 59.681704 9.5542424 59.6918179 9.55949068 59.7032803 9.42893978 59.647654 9.42533159 59.644957 9.31478976 59.5593262 9.08386557 59.7885739 9.18358283 59.8937581"/>
    <path fill="#FFF" d="M10.7849138 56.7226757C10.8014288 56.570915 10.8234486 56.4030095 10.742709 56.2633574 10.5491175 55.9291609 10.0325675 56.3004903 9.90595312 56.4926129 9.72337152 56.767881 9.89494318 57.1093426 10.2903837 56.9164128 10.1857893 56.9075331 10.1692743 56.9390154 10.240839 57.0084379 10.3830508 57.2724046 10.7674814 56.8752436 10.7849138 56.7226757M7.39225818 56.9308015C7.62253861 56.6541821 8.1049509 55.4028653 7.58992956 55.2218161 7.08465731 55.0443286 6.75722207 56.0166516 7.02616272 56.7450035 7.32737625 57.5600216 7.9395524 56.8108935 7.89517719 55.9970627 7.87668752 55.6604893 7.75801746 55.2687108 7.56034608 55.1796702 7.29409484 55.0585751 7.06280588 55.5607639 6.99120043 55.9555104 6.91757793 56.3627226 7.02112008 56.8257336 7.28972455 56.8417609 7.59530837 56.8589754 7.79129887 56.3336361 7.81012471 55.8516298 7.81415882 55.7530915 7.76776656 55.6907631 7.71700401 55.6866079 7.69313553 55.6872015 7.66960322 55.6836399 7.64640709 55.675923 7.46621686 55.5916313 7.26316667 55.9857842 7.29812895 56.2908966 7.31224833 56.4108046 7.34721062 56.4808498 7.41410961 56.5093428 7.44537396 56.5229957 7.56807813 56.5140916 7.54152024 56.4950963 7.64270916 56.5681096 7.78020507 56.3294808 7.79600533 56.1686142 7.81785676 55.9430447 7.73751074 55.9466064 7.70389316 55.7774293L7.50353237 56.3597546C7.53076261 56.3401657 7.55866521 56.324732 7.58724015 56.3116727 7.54152024 56.2594356 7.49647268 56.2077921 7.45108894 56.1561485 7.45041659 56.1971072 7.42285018 56.3496634 7.45714011 56.2475635 7.55026081 55.9685697 7.48705976 56.2339106 7.48336182 56.2161025 7.48537888 56.2261938 7.3724238 56.161491 7.35695972 56.132998 7.31661862 56.0605783 7.30619717 55.9644145 7.31930803 55.8676571 7.32670389 55.8261048 7.33645299 55.7863333 7.3488915 55.7489363 7.36603646 55.7109457 7.36435559 55.7115393 7.34384886 55.7507171 7.27459664 55.7780229 7.33409976 55.7667444 7.33477211 55.767338 7.37881115 55.8296664 7.42822899 55.8451001 7.46890626 55.9317663 7.50991971 56.0208068 7.53983936 56.13003 7.55395874 56.2422211 7.56438019 56.3235448 7.57749105 56.4612609 7.5462267 56.5348678 7.56774195 56.4838178 7.55967373 56.5336805 7.52740085 56.5318997 7.5058856 56.5307125 7.48840446 56.5277445 7.46789774 56.5176532 7.35628737 56.4624481 7.28098398 56.2285682 7.25308139 56.0457382 7.23997053 55.9584784 7.23391937 55.8694379 7.24366847 55.7803973 7.25240904 55.7020416 7.26585607 55.7519043 7.23828966 55.7780229 7.22954908 55.7863333 7.29712042 55.7637764 7.3169548 55.761402 7.64304533 55.7245985 7.47562978 56.3959645 7.32300596 56.6001642 7.19727621 56.7693413 7.21744675 57.1403437 7.39225818 56.9308015M73.9364029 2.6233962C73.9655378 2.72672193 73.9628485 2.82497362 74.0699753 2.87294628 74.2057887 2.93337337 74.3613243 2.89877771 74.4738298 2.80975153 74.6782223 2.64876636 74.7378368 2.3913746 74.5881282 2.17226871 74.4823461 2.0177414 74.3017098 1.89734848 74.1121088 1.94670496 73.7849015 2.03250221 73.6844981 2.39368097 73.7069096 2.69766157 73.7122883 2.77008183 73.7530772 2.81897704 73.8261386 2.82082214 73.9597109 2.82451234 74.0820774 2.85587908 74.2062369 2.7894554 74.3788052 2.69720029 74.4491772 2.52606706 74.5092399 2.34709214 74.5338925 2.27328805 74.5043094 2.21286096 74.4446949 2.17549764 74.108523 1.96607853 73.8351031 2.25991106 73.7436644 2.59064564 73.7140812 2.69720029 73.7790745 2.76454652 73.8785814 2.75993377 73.9978103 2.75439846 74.1009031 2.63585064 74.1528977 2.53759895 74.1927901 2.46287231 74.2636103 2.40567414 74.102696 2.50853859 73.9655378 2.59571967 74.02067 2.56942696 74.1255557 2.63400554 74.1040407 2.57680737 74.0825257 2.5196092 74.0610107 2.46241103 74.0117055 2.61094176 74.3577384 2.40106138 74.2080299 2.35724021 74.1596211 2.34340194 74.0973172 2.34801469 74.048012 2.34663087L74.167241 2.46979144C74.1649999 2.44211491 74.1793432 2.29173908 74.1658963 2.27467188 74.1251074 2.22393157 74.0058785 2.4176673 74.0004997 2.40382904 74.010809 2.42781537 74.1394508 2.49054884 74.1663445 2.52376068 74.1860666 2.54866956 74.1981688 2.5818814 74.2174427 2.60540645 74.2241661 2.62108982 74.2295449 2.63723447 74.2335789 2.65384039 74.1466225 2.62293493 74.2066852 2.55512742 74.4137671 2.44949532 74.4258693 2.45872083 74.2860217 2.42597026 74.3433951 2.46517869 74.3169496 2.44718894 74.2846771 2.36323679 74.2662997 2.3346377 74.1676892 2.18103294 73.8991999 2.49331649 73.9364029 2.6233962M4.42956686 45.0795225C4.43463435 45.1476739 4.43970185 45.2158252 4.44259756 45.2846615 4.44404541 45.3267852 4.47300251 45.3555526 4.51824797 45.3562376 4.86899081 45.3634294 5.01884379 45.0678785 4.99097258 44.7764373 4.98807687 44.7486973 4.97432225 44.7058887 4.93848785 44.6993817 4.68475128 44.6531484 4.4252233 44.6884227 4.27862799 44.9141099 4.20261561 45.0312344 4.16931495 45.21788 4.29057279 45.3226756 4.58665911 45.5785 5.08544511 44.8284926 4.73253049 44.5870519 4.30686116 44.2956106 3.82979298 45.0435632 4.11067683 45.3726761 4.41726009 45.7322687 5.066623 45.135345 4.92762893 44.7781496 4.8132484 44.4836262 4.46250556 44.4332832 4.24279358 44.6480114 4.04298961 44.8435613 3.97349258 45.1774687 4.14904498 45.4038408 4.25148071 45.5360339 4.55553023 45.2582914 4.4900148 45.1298655 4.46033378 45.0723306 4.44404541 45.0106862 4.44295952 44.9459595 4.44259756 44.9264388 4.46974483 44.8195884 4.46540127 44.8147938 4.46141967 44.8106842 4.3792539 44.8641094 4.37997783 44.8706163 4.37997783 44.8695889 4.46286752 44.9171921 4.4740884 44.9271237 4.51535226 44.9617131 4.567837 45.0110287 4.56638915 45.0671936 4.56566522 45.1000706 4.55372042 45.1240435 4.51064673 45.1182215 4.37056678 45.1004131 4.42196562 44.9445897 4.41002082 44.8603422 4.40567726 44.8271227 4.38975085 44.8969864 4.36622321 44.8771232 4.37889194 44.8877398 4.42630919 44.8867124 4.44621719 44.9004111 4.47264054 44.9182195 4.49182462 44.9449321 4.497978 44.9754119 4.50051175 44.9884257 4.46757305 45.1209613 4.44983683 45.1062351 4.4491129 45.1055502 4.60946283 45.0100013 4.60149963 45.0380837 4.6007757 45.040481 4.58122966 45.0117136 4.58122966 45.0202753 4.58122966 45.0257548 4.56421736 44.9603432 4.56421736 44.9606857 4.5598738 44.9569185 4.57254253 44.9548637 4.56457933 44.9558911 4.54829096 44.957946 4.52114368 45.0213027 4.51245655 45.0113711 4.51173262 45.0106862 4.72637711 45.0106862 4.74085566 45.012741 4.71189856 44.9853435 4.6825795 44.9576035 4.65326044 44.9298635 4.66086168 44.9832887 4.65398436 45.0452756 4.66484328 45.0969884 4.65651811 45.0582894 4.75605813 45.0445906 4.62430334 45.0839746 4.65905186 45.096646 4.69416234 45.1096598 4.72963478 45.1226736 4.71407034 45.0596593 4.70103965 44.9969874 4.68800895 44.9336306 4.66230953 44.8093143 4.42268955 44.9880832 4.42956686 45.0795225"/>
    <g transform="translate(69.833)">
      <mask id="astraonaut_head-c" fill="#fff">
        <use xlink:href="#astraonaut_head-b"/>
      </mask>
      <path fill="#FFF" d="M0.134806452,0.593333333 C0.0786774194,1.60150538 -0.0345483871,2.69483871 0.102870968,3.69827957 C0.143516129,3.99763441 0.581903226,3.65526882 0.603193548,3.48408602 C0.725612903,2.48408602 0.629806452,1.41053763 0.570774194,0.406666667 C0.556258065,0.157634409 0.144,0.431182796 0.134806452,0.593333333" mask="url(#astraonaut_head-c)"/>
    </g>
    <path fill="#FFF" d="M68.9840733 2.85011443C69.4628636 2.87954905 69.9402552 2.9063865 70.4195117 2.9029236 70.6521469 2.90119216 70.9896777 1.93937258 70.6693964 1.93590969 70.1812821 1.93158107 69.6945664 1.96101569 69.2069182 1.98958459 69.0092483 2.00170473 68.6903655 2.83193422 68.9840733 2.85011443M90.9618318 48.3650389C91.583725 48.371382 92.189316 47.8483712 92.0776168 47.2250254 92.0613147 47.1373764 92.0232766 47.0785593 91.9194265 47.0750995 91.3077976 47.0560705 90.1962391 47.0676032 90.2469566 47.9308304 90.2735229 48.3829147 90.7070368 48.4826731 91.0807764 48.3021854 91.5016109 48.0980555 91.8355011 47.6673068 91.8668977 47.2146459 91.8711241 47.1489092 91.8258406 47.0895155 91.7654627 47.0641434 91.3216846 46.8750061 90.832623 47.0047497 90.5011479 47.33401 90.2783532 47.555439 90.0253695 48.0721068 90.4661287 48.2226093 90.8887745 48.3661922 91.3530811 48.0213626 91.4653841 47.6425114 91.5746683 47.2769228 91.3959495 46.916524 91.0554177 46.7360363 90.8766989 46.6414677 90.6176774 46.8998015 90.5572994 47.0255086 90.3538256 47.4441479 90.2868061 48.1320771 90.934058 48.1908942 91.4587426 48.2387552 91.9532382 47.7572624 91.8928602 47.2596237 91.8596523 46.9880272 91.7129338 46.5999497 91.4249309 46.486352 91.123041 46.3669879 90.797 46.5774608 90.5989602 46.7804374 90.3683163 47.0168591 90.2167676 47.3328567 90.1732955 47.6523142 90.1521632 47.8062766 90.122578 48.0023336 90.2668813 48.102092 90.4619022 48.235872 90.8163209 48.2352954 91.0421345 48.215113 91.2172307 48.1995438 91.3796474 48.0824863 91.4533085 47.9291005 91.5148941 47.8016635 91.5028185 47.6546208 91.3331564 47.6361684 91.1097579 47.6125262 90.9117181 47.6102197 90.700999 47.5231473L90.7982075 47.6684601C90.7794903 47.5306436 90.7837168 47.1154642 90.9606243 47.0445377 90.9129257 47.0635668 90.985983 47.0451143 91.0240211 47.0785593 91.0946634 47.139683 91.1381355 47.2083029 91.1767774 47.2913388 91.1882492 47.314981 91.2715708 47.6753798 91.2757973 47.6776863 91.2745897 47.6771097 91.2975334 47.6292487 91.3065901 47.6321319 91.3186657 47.6182926 91.3331564 47.6073365 91.3494584 47.5981103 91.3748172 47.590614 91.3681756 47.5917672 91.3301375 47.6021467 91.325911 47.5975336 91.194287 47.5911906 91.1598716 47.5733148 90.9419071 47.461447 91.0318703 47.1973468 91.1145881 47.0318517 90.9491525 47.1281502 90.7825092 47.2250254 90.6164698 47.321324 90.7275653 47.3836009 90.8108869 47.4954687 90.8386608 47.6154094 90.8422834 47.6327086 90.843491 47.7739849 90.8410759 47.772255 90.7293766 47.6921023 91.1677207 47.6073365 90.9207748 47.6125262 90.9020576 47.6131029 90.879114 47.582541 90.8803216 47.582541 90.9268126 47.5860009 90.8018302 47.6425114 90.8495288 47.6436647 90.8803216 47.6442413 90.9666621 47.5986869 91.0089266 47.5952271 91.117607 47.5860009 91.2172307 47.6252123 91.3138354 47.6655769 91.2800238 47.6154094 91.2462121 47.5652419 91.2130042 47.5150744 91.2075702 47.596957 91.1314939 47.765912 91.0306627 47.7762914 90.9286239 47.7878242 90.9406995 47.7059416 90.8948123 47.6523142 90.8893783 47.6453946 90.8972274 47.5923439 90.8911896 47.5894607 90.8815291 47.5848476 90.7921697 47.724394 90.7849244 47.7197809 90.8151134 47.7382333 91.147796 47.6592339 91.2039475 47.6569274 91.345232 47.6523142 91.4865164 47.6563507 91.6278009 47.6551974 91.5788947 47.6252123 91.5299886 47.5952271 91.4810824 47.5646653 91.5390453 47.8143496 91.4424405 47.9094948 91.1785888 47.9337136 90.9986624 47.9504361 90.6689987 48.3615791 90.9618318 48.3650389"/>
    <path fill="#E26DB6" d="M93.0253107,50.8894217 C92.9589365,50.6922387 92.8399413,50.4661277 92.5929815,50.5115861 C92.3125356,50.5641289 92.1720137,50.8681685 92.0984639,51.1049061 C92.0715555,51.1922806 92.1187948,51.2926432 92.219851,51.2902817 C92.6450045,51.2820165 92.8495088,51.0594477 93.0288985,50.7046365 C93.0671683,50.6290694 93.0845093,50.4932847 92.9810612,50.4578626 C92.8662518,50.4177176 92.7508444,50.3805244 92.6384269,50.335066 C92.4542535,50.26127 92.1696218,50.5310682 92.1905506,50.7123113 C92.2049018,50.83865 92.2736679,50.9413741 92.2928028,51.0623996 C92.3119377,51.1792925 92.3890752,51.2200279 92.5038846,51.1970035 C92.7909081,51.1403282 93.1915451,50.5529119 92.7012133,50.5511408 C92.5128541,50.54996 92.1110212,50.9401934 92.3854874,51.0736166 C92.3818996,51.0564959 92.3783118,51.0399656 92.3747241,51.0234353 C92.4201694,50.9313379 92.4650169,50.8398308 92.5110602,50.7483237 C92.5014928,50.7571792 92.4925233,50.7672155 92.4835538,50.7766614 C92.5535158,50.7347453 92.6246737,50.6928291 92.6946357,50.650913 C92.6760987,50.6556359 92.6575618,50.6591781 92.6390249,50.6633107 C92.705997,50.6892869 92.7729692,50.7146727 92.8399413,50.7406489 C92.8160227,50.6202138 92.7388851,50.5251646 92.7107807,50.4065006 L92.2724719,50.83865 C92.3920651,50.8699396 92.5092663,50.9083135 92.6270655,50.9455067 C92.6109205,50.8628551 92.5953734,50.780794 92.5792283,50.6987328 C92.5577015,50.7436008 92.5403605,50.7937821 92.51405,50.8362886 C92.4943172,50.872301 92.4996989,50.8693492 92.5301951,50.8280234 C92.584012,50.7796132 92.5600934,50.7707577 92.4578413,50.8014569 C92.4985029,50.8628551 92.5391646,50.9248438 92.5792283,50.9862421 C92.6402208,50.8705299 92.6222818,50.8534093 92.5260094,50.9360608 C92.4321288,50.9561333 92.4153857,50.9832902 92.4763782,51.0169412 C92.4841518,51.0665322 92.5606914,51.1503644 92.5828161,51.2017265 C92.6814804,51.4331508 93.0916848,51.0860143 93.0253107,50.8894217"/>
  </g>
</svg>
