<svg xmlns="http://www.w3.org/2000/svg" xmlns:xlink="http://www.w3.org/1999/xlink" width="321" height="129" viewBox="0 0 321 129">
  <defs>
    <polygon id="group-76-a" points=".177 .324 18.891 .324 18.891 90.877 .177 90.877"/>
  </defs>
  <g fill="none" fill-rule="evenodd">
    <path fill="#232A50" d="M232.968108 24.0915336C230.961299 29.7108044 229.822066 35.5299434 228.881186 41.3950094 228.593144 42.859575 228.261119 44.3181869 228.029133 45.792108 227.804046 47.2277564 227.422002 48.6531988 227.527215 50.1373259 230.959574 43.8487095 233.978843 37.4104047 235.900275 30.5162304 236.960167 26.7178857 237.520728 22.8642584 237.258558 18.9170757 237.230099 18.4977779 237.28098 17.9483532 236.807522 17.7740002 236.239199 17.563926 235.94512 18.0869851 235.68295 18.4620568 234.474725 20.1936801 233.401034 21.9941942 232.968108 24.0915336M187.347048 60.6350797C186.38892 61.6667394 186.057757 62.992673 185.684337 64.2701279 184.071646 69.7856374 183.430881 75.4355263 183.674941 81.1568574 183.847421 85.1882399 184.338128 89.1915557 185.902525 92.9899004 186.253523 93.8429545 186.686448 94.6415765 187.216826 95.3798128 188.364682 96.9779072 189.342646 97.2049914 190.95965 96.0440553 192.542157 94.9086343 193.998754 93.5980098 195.477773 92.3273589 196.47471 91.4734542 197.414728 90.5557619 198.380618 89.6669867 199.904482 88.5256121 201.205847 87.1622564 202.427008 85.718103 202.43132 85.6058367 202.436494 85.4935703 202.441669 85.381304L202.437357 85.3855565C203.006542 85.4859158 203.158325 84.9671092 203.428256 84.6830413 205.736044 82.2599593 207.886874 79.7033485 210.018732 77.1280265 210.663808 76.3481156 210.959612 75.5316331 211.017393 74.5467511 211.420135 67.6746899 212.135066 60.8323963 212.981082 54.0003088 214.456652 42.0890196 216.722182 30.3367744 220.091586 18.7988558 220.798755 16.3800264 221.893143 14.1551115 223.411833 12.1326163 229.623714 3.83426222 241.238543 4.65924977 246.927808 10.428209 248.979462 12.509389 249.912581 15.1442461 250.354131 17.9925793 251.247579 23.7547346 249.922067 29.237925 248.318862 34.6938993 245.229739 45.2069622 240.03118 54.733442 234.217729 63.9716015 231.276076 68.6459639 228.208512 73.236977 224.940872 77.6961623 224.47345 78.3340392 224.148324 78.9855243 224.455339 79.7883987 223.770592 80.5972267 223.642957 81.4749454 224.106929 82.6588451 229.096786 75.7629698 234.27206 69.2498208 239.844039 63.0505072 241.344618 61.7705007 242.532145 60.1987719 243.897328 58.7937415 245.089167 57.8420291 245.937771 56.5696772 247.025259 55.5227085 249.088125 53.5359343 251.193248 51.5916854 253.264737 49.6134163 256.849742 46.1892927 261.186761 47.8060982 263.475575 50.3023234 265.234013 52.2210573 265.544478 54.5148629 265.220214 56.9583569 264.156011 64.9768956 263.220304 73.0132949 261.954299 81.005468 261.943087 81.0760597 261.987932 81.1551564 262.063824 81.4604869 263.58855 80.0222869 265.030486 78.6606323 266.472422 77.3006786 267.496955 76.482495 268.473194 75.5903178 269.564133 74.8682411 270.526573 74.2303641 270.862048 73.389217 271.051776 72.3277897 272.433344 64.5882159 274.53243 57.0638192 278.043268 49.9689264 278.207987 49.6355293 278.551223 49.3216939 278.319237 48.880283 278.51069 48.6846674 278.730603 48.5103144 278.886697 48.2891837 280.277752 46.3194196 281.621374 45.8456897 283.960208 46.5184372 287.499505 47.5364889 290.260054 51.3484416 290.09361 54.9452172 290.027205 56.3978757 289.162216 57.5307452 288.625802 58.7971436 288.466258 59.1747667 287.956578 59.6621047 288.350696 59.9521261 288.785346 60.2719151 289.211373 59.6986763 289.51925 59.3958974 291.349267 57.5979349 293.419032 56.1282663 295.620744 54.8108378 302.584639 50.6433749 310.711052 51.5125886 316.661625 57.0553142 318.118222 58.4127164 319.689518 59.6697592 320.44067 61.5748851 321.454855 64.1519081 320.759759 66.1931143 318.424375 67.7265706 318.259656 67.8345844 318.119947 67.9791698 317.969026 68.1067452 314.935959 68.7803433 312.506573 67.8124713 310.397138 65.6139221 309.152692 64.3169056 307.448586 64.2012372 305.791912 64.7540639 302.251752 65.935412 299.724052 68.4724614 297.298978 71.1226275 295.437052 72.9282446 293.94251 75.0340891 292.366901 77.0684913 287.188178 83.756844 283.516933 91.1604693 281.597226 99.3839791 281.021142 101.852988 280.641685 104.349213 280.44247 106.871804 280.299312 108.677421 279.342046 109.761812 277.446486 110.202372 272.427307 110.386081 268.294677 106.362353 268.448185 101.434541 268.488718 100.133272 268.565471 98.8337039 268.598243 97.5315844 268.623252 96.5671144 268.603417 95.6017939 268.603417 94.4663729 267.539213 95.3857663 266.839805 96.3876584 266.083479 97.3283143 265.397869 98.1822189 264.482861 98.9017441 264.243976 100.054175 262.926225 100.72182 262.372563 102.071567 261.495501 103.119387 260.044078 104.853561 258.717704 106.690647 257.371495 108.508171 256.941156 109.089064 256.45045 109.592562 255.891613 110.043328 255.600121 110.154744 255.290519 110.234692 255.02145 110.38523 252.362665 111.877863 249.809955 111.39903 247.447836 109.810291 245.203867 108.301499 244.2466 106.087641 244.658829 103.417913 245.85843 95.6375151 247.109775 87.8647716 248.324899 80.0869251 248.673309 77.8518043 248.965664 75.6081783 249.28389 73.3679544 247.573747 75.2645753 245.496221 76.7861245 244.532055 79.1666813 243.371262 79.5647165 242.899529 80.6533599 242.227718 81.5004605 234.986129 90.6459152 228.480169 100.292316 222.34073 110.18196 221.821564 111.018004 221.038503 111.560625 220.418436 112.274197 219.398215 112.436643 218.464233 112.901868 217.402617 112.975011 212.519697 113.31181 209.26068 110.21513 209.50819 105.438707 209.603916 103.588014 209.623752 101.733067 209.687569 99.8806726 209.718616 98.9935984 209.772947 98.1073747 209.815205 97.2203004L209.532337 97.1037816C208.197339 98.5845066 206.651052 99.8645131 205.457488 101.480468 204.571801 102.043501 203.754244 102.682228 203.122104 103.522525 202.138965 104.314343 201.078211 105.022811 200.222708 105.96772 199.310287 106.674488 198.419426 107.411873 197.48027 108.08292 194.411845 110.276366 191.06745 111.53426 187.220275 110.699066 183.781016 109.951474 181.130855 107.900062 178.916207 105.332394 175.404507 101.258487 173.11138 96.5441508 171.816052 91.3594869 170.064514 84.3521958 169.487567 77.2462464 170.177489 70.0603498 170.764785 63.9486379 172.143765 58.0512528 175.383809 52.7015913 175.52783 52.4626 175.865029 52.2363663 175.695136 51.8621452 177.08964 51.0261011 177.788186 49.514758 179.063678 48.5409325 185.699861 43.4753389 192.938 42.8842395 200.621138 45.6781406 202.609837 46.4010679 204.47435 47.3442753 206.14396 48.726342 208.907958 51.0158951 209.202037 55.6655929 205.931809 58.2689814 205.652391 58.4909626 205.364349 58.7035883 205.080618 58.9213169 202.656407 59.745454 200.446933 59.3168007 198.353884 57.8973118 197.395755 57.2475278 196.299642 56.824828 195.162134 56.5416106 191.781519 55.7021645 188.605293 57.3657476 187.347048 60.6350797M43.9569839 85.9117801C43.1395066 89.5505474 42.6576253 93.2456767 42.0939962 96.9245806 41.1982132 102.764883 40.4005274 108.620557 39.5641191 114.4694 39.4350437 115.372046 39.2663852 116.273839 39.2087316 117.181609 39.0435151 119.781949 38.1546161 121.971528 35.809747 123.386557 34.6162302 123.702526 33.4425049 124.04753 32.1681008 123.994584 26.9216176 123.774259 22.7240868 119.305433 23.3875342 114.551381 24.221361 108.576151 25.0405593 102.597505 25.9466684 96.6333767 28.8999127 77.2234867 32.7859416 58.0125717 38.4325584 39.1791117 38.5349582 38.8349616 38.8111795 38.4780021 38.455792 37.8964483 36.6771335 40.231203 34.7771441 42.3533191 33.3951773 44.8631377 33.3315001 44.9920872 33.2678229 45.1201828 33.2050062 45.2499862 33.1886567 45.3456309 33.1731676 45.4404216 33.1568181 45.5360663 32.2636166 45.9545117 31.8901585 46.8315392 31.3962302 47.5762012 27.2064439 53.899851 23.5931943 60.5181205 21.1072028 67.6983024 20.5375502 69.3439031 19.566043 70.6376681 18.0584427 71.530067 17.9414144 71.5556861 17.8218046 71.5736195 17.7073577 71.6094862 13.9452412 72.7965049 10.9033651 71.3891619 8.37434854 68.7905304 5.96494178 66.3140166 5.24986427 63.3524478 6.49759278 59.9912208 7.81502197 56.4446824 9.25464251 52.9562138 10.9549953 49.5744916 16.8416923 37.8708292 24.8254337 27.6675926 33.7970319 18.1740052 38.8025744 13.0476217 43.5327562 7.62320266 49.5476681 3.58136143 51.5603833 2.22867254 53.5799824.800834263 56.0152043.270518732 60.4915378-.704715303 64.9816394.977606107 66.8962573 4.98187265 67.9469307 7.17743019 68.0020029 9.49681341 66.8463482 11.6436946 61.5611423 21.454105 57.5847607 31.790561 54.1900786 42.3601509 52.0267756 49.0954143 50.1663693 55.9169287 48.5632533 62.8050528 48.4935526 63.1005266 48.247449 63.4498004 48.4987157 63.7094073 48.8153805 64.03477 49.1836756 63.7299026 49.4900144 63.6026611 55.7295175 60.9852422 62.1850066 58.982682 68.6654503 57.0706426 72.4215433 55.9621892 76.2636866 55.1603111 80.1178769 54.4421221 80.4310998 54.3840521 80.7615327 54.3985696 81.0162414 54.1637278 81.8311372 54.2414391 82.5901003 53.9135145 83.3843441 53.8545906 84.2551725 53.7896888 84.6553061 53.3789291 84.8902233 52.5036096 85.7842853 49.1722716 86.729117 45.8511813 87.7608594 42.558272 91.3198973 31.2021755 94.8006296 19.81619 99.8448948 8.98443125 99.9885987 8.67614799 100.21319 8.36188693 100.081533 7.97930826 100.540181 7.728241 100.67614 7.24916369 100.89901 6.83328017 101.639042 5.44814041 102.700042 5.00578382 104.189571 5.55232478 106.160982 6.27734553 107.658257 7.66931705 109.024735 9.18084441 110.494473 10.8068038 111.854927 12.5164522 112.623356 14.620635 113.017466 15.7009073 112.989069 16.7026145 112.483954 17.7248169 108.849192 25.0886024 106.098166 32.7990999 103.500309 40.5625435 97.5697264 58.2875502 92.7664019 76.3140084 88.878652 94.587264 86.9872677 103.478802 85.2249587 112.393398 83.6321688 121.340444 83.4015541 122.644457 82.8000629 123.054363 81.0997102 123.087667 77.8642211 121.363501 75.2921794 118.916877 73.2011585 115.944206 71.9258939 114.130373 71.5498544 112.224312 71.960314 109.97837 74.3568132 96.8588248 77.0441623 83.8016196 80.1411105 70.8281034 80.3854932 69.8041931 80.0748518 69.7751581 79.2289779 69.9741332 67.7679462 72.6701173 56.8395656 76.7683205 46.3276681 82.037317 44.5472886 82.929716 43.8571656 84.0825758 43.9569839 85.9117801"/>
    <path fill="#232A50" d="M118.94659,65.287037 C118.895605,65.348144 118.844621,65.4109724 118.793636,65.47294 C116.217621,67.8320151 114.378721,70.7135121 112.861282,73.81706 C112.518217,74.520221 112.995225,74.6355497 113.55087,74.6613696 C115.672345,74.7594851 117.686667,74.3558345 119.632721,73.4977543 C122.35132,72.2997125 124.686239,70.5766668 126.77142,68.4930037 C126.815492,68.3854209 126.859563,68.2769775 126.903634,68.168534 L126.889808,68.1969359 C128.437491,67.0040581 129.472737,65.3972018 130.492427,63.7765749 C131.688404,61.8788147 131.506069,61.3942619 128.938695,60.927783 C128.510944,60.8503234 128.054675,60.861512 127.62001,60.9105698 C124.174665,61.2970071 121.333357,62.8840682 118.918937,65.3051109 L118.94659,65.287037 Z M163.467327,12.7057411 C164.627009,11.9380304 165.44881,10.7632265 166.800333,10.1943288 C169.91471,8.88267964 173.094763,8.68386667 176.344811,9.43866741 C177.484618,9.70375137 178.564799,10.227034 179.242289,11.2451974 C179.971627,12.3425416 180.102977,13.4898043 179.547332,14.7687484 C178.27099,17.7027458 177.070693,20.670309 175.879037,23.6395936 C175.316479,25.0416123 175.357094,25.0588255 176.827004,24.9426361 C182.540729,24.4899278 188.245813,23.9520139 193.973364,23.6826267 C196.774057,23.5509454 199.566109,23.2127051 202.377172,23.241107 C204.159038,23.2591809 205.883871,23.55697 207.556855,24.1835321 C209.610063,24.9529641 210.808632,26.3919913 210.888133,28.1615127 C210.988374,30.3699719 209.750919,31.630842 207.893872,32.476873 C206.30903,33.1344189 204.629997,33.2549116 202.943187,33.3538877 C193.608695,33.9029902 184.27766,34.4744699 174.982919,35.5218958 C171.271418,35.9401776 171.274874,35.9659975 170.690712,39.6642629 C169.12661,44.8798758 167.896933,50.1772516 166.713918,55.488398 C164.767864,64.2361685 163.41375,73.0854971 162.19617,81.954621 C161.300916,88.4810224 160.50331,95.0229157 159.937295,101.589768 C159.850881,102.583833 159.785206,103.579619 159.680644,104.572823 C159.454238,106.729643 158.285915,108.271089 156.46689,109.376179 C156.141107,109.53282 155.823966,109.708395 155.490406,109.844379 C152.143574,111.211111 148.745757,111.72923 145.317695,110.198972 C143.689646,109.471713 142.925742,108.120473 143.065733,106.318246 C143.112397,105.720086 143.203997,105.125369 143.256709,104.527208 C143.35695,103.377364 143.444229,102.225798 143.536692,101.075092 C143.396701,101.006239 143.256709,100.938247 143.116718,100.869394 C142.855746,101.226569 142.637118,101.626777 142.32689,101.934033 C138.983514,105.247583 135.444841,108.326171 131.36435,110.727419 C128.819443,112.224971 126.136274,113.386004 123.187812,113.823221 C117.213979,114.707121 112.713514,112.218946 109.175705,107.645387 C103.644315,100.495006 100.610302,92.3755188 100.012314,83.3927875 C99.306308,72.7997573 101.717272,63.0458727 108.253663,54.4771199 C108.8577,53.6861713 109.430628,52.8711242 110.018246,52.0672658 L109.985409,52.0810363 C110.072687,52.0603805 110.16083,52.0380032 110.249837,52.0173473 C112.951153,49.3071221 116.051705,47.2785413 119.869496,46.515134 C120.688705,46.3524688 121.532111,46.3171817 122.364282,46.2242301 C123.530877,46.2750092 124.683647,46.3911986 125.823453,46.6769384 C127.250156,47.0349739 128.414159,47.9386692 129.755312,48.4688371 C129.846047,48.8449465 130.139856,49.0515054 130.411198,49.2959335 C133.332007,51.9398877 136.030731,54.7869583 138.159984,58.1159996 C140.079249,61.116268 141.555208,64.3273987 141.823957,67.9120567 C142.14974,72.2609827 140.235659,75.8955592 137.8005,79.32788 C136.776488,80.7729318 135.281518,81.7859312 134.296393,83.2550816 C133.519526,83.7241425 132.785868,84.2491464 132.180966,84.9350942 C130.224543,86.2871945 128.15578,87.4508098 125.918509,88.2563896 C120.282557,90.283249 114.945599,89.837426 110.047627,86.1701444 C109.84801,86.0203892 109.686415,85.7139935 109.294957,85.9041998 C109.054725,87.9439692 108.767829,90.0018125 109.152373,92.079451 C108.878439,95.2983276 110.708698,99.1816354 114.532538,99.2900789 C116.196017,99.3374153 117.810239,99.1110611 119.357923,98.487081 C125.202998,96.130588 130.027518,92.3152725 134.484776,87.9766744 L134.469222,88.0162648 C134.560821,87.9301986 134.654149,87.8441324 134.746612,87.7580662 L134.737971,87.7709761 C134.820928,87.6892132 134.903886,87.6091716 134.986844,87.5274087 L134.985116,87.534294 C135.04215,87.4430638 135.100047,87.3526943 135.157945,87.2614641 C135.222756,87.1461354 135.286702,87.0316673 135.351513,86.9163385 L135.332502,86.9361338 C135.526935,86.7967065 135.748156,86.6822384 135.911479,86.512688 C139.807908,82.4538051 143.431267,78.168568 146.749582,73.625993 C147.020924,73.2541869 147.111659,72.8393477 147.177334,72.3969674 C148.820937,61.4570903 151.114378,50.6523371 153.976425,39.9654947 C154.302207,38.7485183 154.239989,38.6753621 153.045741,38.9111835 C147.758904,39.95947 142.504039,41.121364 137.40645,42.9244513 C134.225533,44.0484761 130.984126,44.1044192 127.890488,42.6283835 C125.770741,41.6171054 124.352679,39.9956179 124.46761,37.4471971 C124.999924,35.5950521 126.444774,34.7412752 128.10998,34.0931965 C132.310588,32.4579384 136.67884,31.4217011 141.06351,30.4422675 C145.481882,29.4542273 149.93482,28.6409016 154.397263,27.8792155 C155.071296,27.7811 155.744465,27.6072463 156.418498,27.6020823 C157.568675,27.5934757 158.050003,27.0073647 158.397389,25.9668241 C159.71521,22.0301553 161.282769,18.1864379 162.941927,14.3805897 C163.177838,13.8426758 163.462142,13.3168112 163.467327,12.7057411 L163.467327,12.7057411 Z"/>
    <path fill="#93C8B3" d="M110.144696,51 C109.553276,51.8040382 108.976642,52.6183956 108.368697,53.4086749 C101.790024,61.9693171 99.3634644,71.7149483 100.074038,82.299015 C100.675894,91.2741453 103.729533,99.3876219 109.296704,106.531093 C112.857398,111.101642 117.386976,113.586851 123.399452,112.703699 C126.366987,112.266852 129.067513,111.106801 131.628882,109.610516 C135.735769,107.211301 139.297333,104.135317 142.662336,100.824571 C142.974571,100.517575 143.194614,100.117706 143.457274,99.7608332 C143.598171,99.8296279 143.739068,99.8975627 143.879965,99.9663574 C143.786903,101.116089 143.69906,102.266681 143.598171,103.415552 C143.545117,104.013206 143.452925,104.607421 143.40596,105.205075 C143.265063,107.005776 144.033908,108.355873 145.672488,109.082517 C149.122726,110.611479 152.542523,110.094659 155.911005,108.729084 C156.246723,108.593215 156.565915,108.417788 156.893805,108.26042 C156.462417,110.003506 155.321325,111.218593 153.82973,112.118084 C150.676072,114.016818 147.24062,114.513 143.659922,113.810434 C140.297528,113.150004 138.512832,110.698333 139.192095,107.678245 C139.352996,106.96192 139.43736,106.190559 139.291245,105.417479 C138.670254,105.40286 138.440644,105.895602 138.105796,106.200018 C133.863231,110.068861 129.443239,113.681444 123.958692,115.747005 C116.613782,118.513412 110.111646,116.663694 105.270702,110.547844 C92.3986289,94.2804743 92.9239487,69.8755496 105.954314,54.8060675 C107.196295,53.3699779 108.611353,52.1222138 110.144696,51"/>
    <g transform="translate(18.894 38)">
      <mask id="group-76-b" fill="#fff">
        <use xlink:href="#group-76-a"/>
      </mask>
      <path fill="#48B2AB" d="M13.6682951,7.99242067 C13.6838938,7.8972575 13.6986716,7.801237 13.7150914,7.7052165 C13.7750235,7.57576029 13.8349556,7.44544675 13.8948877,7.31684787 C15.2142148,4.79716706 17.0269556,2.6667122 18.723937,0.323640526 C19.062184,0.906622136 18.7994679,1.26498436 18.7017704,1.61134402 C13.3136284,20.517952 9.60686914,39.8043554 6.78923951,59.2905157 C5.92391852,65.2780798 5.14315926,71.2802184 4.34680123,77.2789277 C3.71464074,82.051661 7.71941852,86.5380474 12.7249802,86.7592375 C13.940863,86.813249 15.0598691,86.466032 16.1994,86.1488214 C15.2930296,89.0011447 12.9597827,90.8083877 10.0945358,90.8744018 C5.25152963,90.9858541 1.04232593,87.5994168 0.277165432,82.9501385 C-0.0323469136,81.0623069 0.451214815,79.2164842 0.687659259,77.3723762 C3.63500494,54.4080447 7.36228889,31.6014612 13.4392395,9.27498022 C13.5525358,8.85917716 13.5935852,8.42108362 13.6682951,7.99242067" mask="url(#group-76-b)"/>
    </g>
    <path fill="#E0B485" d="M42.903405,86.2568294 C42.8013087,84.4022658 43.5071816,83.2334232 45.3281931,82.3286525 C56.0799939,76.9866089 67.2577829,72.8315899 78.9803791,70.0982298 C79.8455575,69.8964962 80.1632884,69.9259337 79.9133284,70.9640391 C76.7457014,84.1174145 73.9970215,97.3556393 71.5458292,110.657068 C71.126002,112.934147 71.5106235,114.866633 72.8149923,116.705612 C74.9537346,119.719494 77.5844757,122.200038 80.8938053,123.948107 C80.7705856,124.581014 80.6579276,125.214786 80.5215057,125.845095 C80.1712097,127.45983 78.8562792,128.303994 77.2297789,127.899661 C76.6436051,127.753339 76.0521504,127.515242 75.5443091,127.195758 C72.3168326,125.161972 69.7063348,122.533375 67.8245936,119.232044 C67.0122236,117.80519 66.8097912,116.292621 67.101998,114.676155 C69.4431727,101.706331 72.1152803,88.8023089 75.1491259,75.9718803 C75.5645524,74.2125558 75.5636722,74.2238113 73.7329792,74.6887509 C63.5374274,77.2783866 53.8233127,81.1217143 44.3485963,85.5892904 C43.8680394,85.8144008 43.3857222,86.0343164 42.903405,86.2568294"/>
    <path fill="#E1B585" d="M176.668469,51.0055931 C176.834356,51.3838088 176.505109,51.6138397 176.364484,51.8550707 C173.20085,57.2741522 171.85439,63.2489264 171.281787,69.4390854 C170.607294,76.7190914 171.170634,83.9163897 172.880866,91.014611 C174.145646,96.2665539 176.384694,101.042927 179.813578,105.168838 C181.975998,107.770687 184.56366,109.848719 187.921811,110.606012 C191.678258,111.452043 194.943782,110.177827 197.939845,107.955917 C198.857695,107.275302 199.726705,106.528347 200.616766,105.81327 C200.709393,105.8977 200.801178,105.982993 200.893805,106.066562 C198.26404,109.051795 195.582066,111.97069 191.947719,113.72823 C188.021175,115.625339 184.193994,115.379801 180.488913,113.126876 C177.848201,111.521828 175.801144,109.269765 174.06144,106.706686 C170.688974,101.735605 168.801066,96.1847076 167.840272,90.2504258 C166.451708,81.6806956 166.485391,73.1643808 168.650337,64.7256045 C169.933642,59.7209234 172.069958,55.1728581 175.825563,51.5638705 C176.072288,51.3269472 176.233964,50.949593 176.668469,51.0055931"/>
    <path fill="#48B2AB" d="M129.460074,48.9127493 C128.116533,48.3878193 126.951322,47.4930523 125.521213,47.1385541 C124.379376,46.8556373 123.224553,46.7405958 122.05588,46.6903184 C121.975372,46.6016939 121.899192,46.5105129 121.81522,46.4261491 C118.511771,43.0873898 119.579159,39.2543782 124.162955,38 C124.047819,40.5232431 125.469272,42.1287108 127.591928,43.1299977 C130.691076,44.5914506 133.938256,44.5360602 137.124838,43.4231405 C142.231507,41.6378672 147.49573,40.4874524 152.791984,39.4503748 C153.988359,39.216031 154.050688,39.2884645 153.724325,40.4934175 C150.85718,51.074677 148.559655,61.7726822 146.913125,72.6044764 C146.847333,73.0424862 146.756436,73.4532269 146.484611,73.8213596 C143.160386,78.3190553 139.530573,82.5619554 135.627205,86.5807377 C135.464457,86.7486131 135.241976,86.8619502 135.047197,87 C137.347319,83.9484183 139.637918,80.8891671 141.957951,77.8529243 C142.386464,77.2930558 142.633184,76.6973966 142.734469,76.0207822 C144.250282,65.8673067 146.399774,55.8416549 149.027125,45.9122972 C149.520565,44.0477731 149.52749,44.1261717 147.559791,44.4286882 C141.384002,45.3788456 135.621145,47.9242448 129.460074,48.9127493"/>
    <path fill="#92C8B3" d="M223.893805,12 C222.303261,14.0427673 221.157094,16.2899831 220.416466,18.7330571 C216.887644,30.3866235 214.514925,42.2566647 212.969541,54.2873441 C212.083497,61.1879116 211.33474,68.0987874 210.912944,75.0397291 C210.852429,76.0344829 210.54263,76.8591493 209.867032,77.6468774 C207.63431,80.2480125 205.381717,82.830249 202.96474,85.2776182 C202.682037,85.5645334 202.523073,86.0885401 201.926958,85.9871749 C201.752639,85.3497765 202.3054,85.0302183 202.661263,84.7226865 C205.886608,81.9420147 206.765427,78.4672486 207.068903,74.3937405 C208.386679,56.7235459 211.016812,39.2320291 216.296045,22.1820523 C217.472921,18.3817149 219.509648,15.0830495 222.819895,12.5798435 C223.145048,12.3333026 223.437687,12.030066 223.893805,12"/>
    <path fill="#D22F52" d="M32.8938053,18.2342712 C23.9704621,27.6897465 16.0312798,37.8520221 10.1768067,49.5087001 C8.48576171,52.8768464 7.0540217,56.3513104 5.74294835,59.8844618 C4.50204996,63.2313445 5.21321311,66.1810242 7.61028649,68.6475959 C10.1254592,71.2357952 13.1506839,72.6374884 16.8922065,71.455235 C17.0060269,71.4195123 17.1241261,71.4025014 17.2413697,71.3761346 C16.5327739,73.6734485 15.0308589,75.2197339 12.685133,75.7878959 C6.7219744,77.2321162 0.00914196095,71.0435727 0.989879592,65.0412979 C1.24661719,63.4677952 1.89958649,62.0125179 2.47039975,60.5368275 C6.87344958,49.1497714 13.4365184,39.0512863 21.2208024,29.696175 C24.4659657,25.7955895 27.7282448,21.8984061 31.6366469,18.6102107 C31.9678384,18.331233 32.2622308,17.6397423 32.8938053,18.2342712"/>
    <path fill="#E2877D" d="M244.957559,78.8022467 C245.885795,76.4198955 247.885072,74.8971993 249.532317,73 C249.22595,75.2410614 248.94449,77.4863785 248.608233,79.7231842 C247.43922,87.5077447 246.234506,95.285496 245.078777,103.071759 C244.682741,105.743499 245.603505,107.959026 247.764684,109.468955 C250.038779,111.058891 252.496362,111.538085 255.056068,110.044328 C255.315111,109.893676 255.613176,109.814519 255.893805,109.702168 C253.465281,114.767325 248.612384,116.450887 244.277572,113.657433 C241.722017,112.011321 240.544702,109.541302 240.983912,106.476334 C242.235121,97.7538128 243.577659,89.0440591 244.881174,80.3291986 C244.957559,79.8236192 245.082098,79.318891 244.957559,78.8022467"/>
    <path fill="#E0867D" d="M98.854058,8.00411238 C98.9849954,8.38503163 98.7624874,8.69707931 98.6195688,9.00487567 C93.6020124,19.7888016 90.1403007,31.1254005 86.601567,42.4330904 C85.5746068,45.7117168 84.635794,49.0175517 83.7466177,52.3352903 C83.5121284,53.2068131 83.1141813,53.6157912 82.2489674,53.6804114 C81.4590638,53.7390798 80.7033923,54.065582 79.8938053,53.9882077 C83.8082353,40.661986 87.8364867,27.3740261 93.3153193,14.5749694 C93.9075331,13.1932869 94.6332516,11.8660214 95.2015029,10.4749859 C95.8801524,8.81441605 97.0217899,7.93183975 98.854058,8.00411238"/>
    <path fill="#D22F52" d="M169.893805 39C170.474761 35.397749 170.471323 35.3734435 174.162453 34.9661159 183.406175 33.9461207 192.685993 33.3896073 201.969248 32.8548851 203.6468 32.758501 205.316617 32.6403257 206.89276 32 206.931433 33.6502634 205.892416 34.6266762 204.610189 35.4354646 202.385199 36.8376437 199.837073 36.8317768 197.331058 36.9667146 188.171557 37.4595307 179.016352 38.029454 169.893805 39M205.183231 101.588942C206.357601 99.8946186 207.877923 98.5525357 209.190504 97L209.468622 97.1221697C209.426226 98.0522643 209.372807 98.9814672 209.342282 99.9115618 209.279535 101.853792 209.260881 103.798698 209.165914 105.739144 208.922561 110.747209 212.126853 113.994069 216.928627 113.640936 217.971569 113.564245 218.889867 113.076458 219.893805 112.905243 218.894107 114.370387 218.214923 116.101272 216.550454 116.990347 213.731119 118.494728 210.959266 118.265548 208.316298 116.651482 205.812388 115.122132 204.72705 112.734918 204.91444 109.655708 205.078089 106.971542 205.099287 104.278459 205.183231 101.588942"/>
    <path fill="#93C8B3" d="M264.014072,100.358349 C264.265098,99.2532406 265.226608,98.5632614 265.947967,97.7444208 C266.74273,96.8415757 267.476776,95.8816401 268.59597,95 C268.59597,96.088797 268.615907,97.0136627 268.590533,97.9385285 C268.556096,99.1871788 268.474535,100.434198 268.431943,101.682033 C268.270634,106.407493 272.613287,110.265178 277.88845,110.089829 C277.988135,111.957503 276.687696,113.548696 274.690365,113.88553 C271.83121,114.366721 269.475919,113.269769 267.360779,111.738113 C264.965614,110.002562 263.611706,107.808657 263.943387,104.897858 C264.113758,103.398825 264.204381,101.873694 264.014072,100.358349"/>
    <path fill="#DFB385" d="M277.821478,48 C278.036261,48.4504265 277.71886,48.7706719 277.566921,49.1100105 C274.328473,56.349813 272.392246,64.0287595 271.117868,71.9255424 C270.943655,73.0086488 270.633413,73.8678438 269.745644,74.5187491 C268.739347,75.254706 267.83885,76.1651055 266.893805,77 C267.623271,71.4716445 268.989131,66.1125243 270.550682,60.8089481 C271.479816,57.6533593 272.706465,54.6305551 273.968115,51.6181655 C274.758834,49.7279366 275.914684,48.4174473 277.821478,48"/>
    <path fill="#D22F52" d="M296.893805,70.6462417 C299.358364,68.0101789 301.925429,65.4866311 305.522826,64.3115697 C307.205875,63.761685 308.936235,63.8767378 310.200493,65.1668519 C312.344387,67.3537012 314.811574,68.3164224 317.893805,67.6464091 C316.44994,72.399105 310.878619,73.3195275 307.416147,70.1166604 C304.857842,67.7504642 302.35561,68.1015444 299.598424,69.2892954 C298.672353,69.6885963 297.793593,70.1911064 296.893805,70.6462417"/>
    <path fill="#E2877D" d="M186.893805,60.2282808 C188.100001,57.0198699 191.145665,55.3872862 194.386438,56.2119246 C195.476891,56.4898644 196.526836,56.9046876 197.446157,57.5415288 C199.451798,58.9345667 201.569874,59.3552324 203.893805,58.5464525 C202.368493,62.7664643 198.291899,64.2271093 194.451749,61.8867388 C192.878487,60.9285557 191.236605,60.2241075 189.402924,60.0296331 C188.558008,59.9394904 187.712266,59.9328132 186.893805,60.2282808"/>
    <path fill="#DFB385" d="M162.893805,12 C162.88866,12.6040839 162.606526,13.1230856 162.373272,13.6548497 C160.726773,17.4180374 159.170318,21.2178106 157.86341,25.1094725 C157.517817,26.1381168 157.041018,26.7175269 155.899618,26.7260352 C155.22987,26.7302893 154.561838,26.9030062 153.893805,27 C154.315721,25.1783891 155.199856,23.5328985 155.908193,21.8210437 C156.557359,20.2512762 157.377178,18.7487238 157.967174,17.1585366 C158.874463,14.712422 160.481514,12.9954623 162.893805,12"/>
    <path fill="#D3AB81" d="M239.893805,61.5818327 C234.326048,68.0368996 229.154695,74.8187492 224.168618,82 C223.704998,80.7663729 223.832536,79.8524438 224.516765,79.0111331 C226.76162,76.2268376 228.98924,73.427487 231.254776,70.6609033 C233.984796,67.3239995 236.923358,64.1810399 239.820557,61 C239.844686,61.1948298 239.869676,61.3878885 239.893805,61.5818327"/>
    <path fill="#48B2AB" d="M201.893805,84.3956763 C200.988434,86.0795319 200.023601,87.6691789 198.893805,89 C198.909151,88.2859976 199.25378,87.8923046 199.530634,87.4371281 C200.228844,86.2877826 200.931529,85.1453788 201.632936,84 C201.719892,84.1309004 201.806849,84.2637842 201.893805,84.3956763"/>
    <path fill="#505453" d="M239.982643,63 C239.953379,62.7812625 239.92307,62.5635238 239.893805,62.3437875 C241.31521,60.6388334 242.562075,58.7481023 244.893805,58 C243.240377,59.6510188 241.801205,61.4968038 239.982643,63"/>
    <path fill="#E0867D" d="M200.186488,106 C200.089225,105.907256 199.991069,105.814511 199.893805,105.721767 C200.779885,104.670347 201.877446,103.882019 202.893805,103 C201.919385,103.930284 201.25371,105.169085 200.186488,106"/>
    <path fill="#93C8B3" d="M110.546805,51.463 C110.443805,51.487 110.342805,51.513 110.240805,51.537 C110.342805,51.513 110.443805,51.487 110.546805,51.463"/>
    <path fill="#92C8B3" d="M202.589305,85.6995 C202.453305,85.5665 202.317305,85.4325 202.181305,85.3005 C202.321305,85.3025 202.463305,85.3035 202.606305,85.3035 C202.600305,85.4355 202.594305,85.5675 202.589305,85.6995"/>
    <path fill="#48B2AB" d="M232.900223,23.4812668 C233.297268,21.3458437 234.281971,19.5126358 235.390059,17.7495696 C235.630501,17.3676873 235.900207,16.8351305 236.421427,17.0490192 C236.855646,17.2265381 236.808981,17.7859393 236.835081,18.2128507 C237.075523,22.2317065 236.561421,26.1553083 235.589373,30.0226236 C233.827189,37.0419826 231.058156,43.5971946 227.910269,50 C227.813776,48.4889241 228.164156,47.0375984 228.370588,45.5758814 C228.583347,44.0751968 228.887854,42.5900993 229.152814,41.0989401 C229.493703,40.8582071 229.540368,40.4364913 229.670871,40.0701961 C230.655574,37.3009005 231.475765,34.4727206 232.100597,31.5813265 C232.676391,28.9185423 233.083718,26.2349753 232.900223,23.4812668"/>
    <path fill="#505453" d="M232.835164,23 C233.077122,25.6571639 232.540018,28.2466454 231.780771,30.8160727 C230.956864,33.6060949 229.875355,36.3351192 228.576918,39.0073237 C228.404837,39.3607766 228.343304,39.7677071 227.893805,40 C229.030589,34.237798 230.408288,28.5207176 232.835164,23"/>
    <path fill="#505452" d="M32.5038053,45.2735 C32.4308053,45.4235 32.3578053,45.5755 32.2838053,45.7265 C32.3568053,45.5755 32.4308053,45.4245 32.5038053,45.2735"/>
    <path fill="#DFB385" d="M132.893805,85.636652 C128.780056,91.3656222 118.039739,96.7336133 109.087543,92.4539469 C108.690876,90.286277 108.986817,88.1392601 109.234622,86.0111004 C109.63842,85.8126517 109.80511,86.1323247 110.01102,86.2885693 C115.063399,90.1147671 120.568603,90.5799092 126.382226,88.4643208 C128.690026,87.6247304 130.824006,86.4106916 132.842105,85 C132.859933,85.211918 132.875978,85.424734 132.893805,85.636652"/>
    <path fill="#48B2AB" d="M127.32923,67 C127.749859,66.0418027 128.123852,65.0638657 128.604831,64.130343 C129.030946,63.3012761 128.765767,62.9352694 127.808381,62.7954466 C125.381539,62.4425997 123.080885,62.9179972 120.807664,63.6031288 C120.16392,63.7972358 119.532063,64.0250647 118.893805,64.2364438 C121.448665,61.922788 124.455242,60.406122 128.101906,60.0368254 C128.561854,59.9907661 129.044662,59.9792513 129.49638,60.0532751 C132.214004,60.499063 132.406945,60.9621232 131.141402,62.775707 C130.061485,64.3244499 128.966937,65.8600331 127.32923,67"/>
    <path fill="#D3AB81" d="M132.941191,85 C132.924851,84.8226231 132.910145,84.6444946 132.893805,84.4671176 C133.465701,83.8680947 134.159328,83.4096204 134.893805,83 C134.242662,83.6674183 133.592335,84.3333333 132.941191,85"/>
    <path fill="#48B2AB" d="M135.281305 87.7005C135.356305 87.5665 135.430305 87.4325 135.506305 87.2995 135.430305 87.4325 135.356305 87.5665 135.281305 87.7005M127.317305 67.6885C127.369305 67.5635 127.420305 67.4375 127.470305 67.3115 127.420305 67.4375 127.369305 67.5635 127.317305 67.6885"/>
    <path fill="#48B2AB" d="M135.398805 87.4929761L135.388805 87.5069761C135.388805 87.5079761 135.398805 87.4929761 135.398805 87.4929761M134.403305 87.477C134.403305 87.477 134.385305 87.523 134.384305 87.523L134.403305 87.477z"/>
    <path fill="#48B2AB" d="M135.394805 87.496C135.394805 87.496 135.392805 87.503 135.392805 87.504L135.394805 87.496zM119.482805 64.392C119.422805 64.464 119.364805 64.537 119.304805 64.608 119.364805 64.536 119.423805 64.463 119.482805 64.392"/>
  </g>
</svg>
