<svg xmlns="http://www.w3.org/2000/svg" width="35" height="35" viewBox="0 0 35 35">
  <path fill-rule="evenodd" d="M7,0 C3.13400675,-3.88578059e-16 7.77156117e-16,3.13400675 0,7 L0,28 C7.77156117e-16,31.8659932 3.13400675,35 7,35 L28,35 C31.8659932,35 35,31.8659932 35,28 L35,7 C35,3.13400675 31.8659932,0 28,0 L7,0 Z M3.5,7 C3.5,5.06700338 5.06700338,3.5 7,3.5 L28,3.5 C29.9329966,3.5 31.5,5.06700338 31.5,7 L31.5,28 C31.5,29.9329966 29.9329966,31.5 28,31.5 L7,31.5 C5.06700338,31.5 3.5,29.9329966 3.5,28 L3.5,7 Z M12.25,15.75 C12.25,14.7835017 11.4664983,14 10.5,14 C9.53350169,14 8.75,14.7835017 8.75,15.75 L8.75,26.25 C8.75,27.2164983 9.53350169,28 10.5,28 C11.4664983,28 12.25,27.2164983 12.25,26.25 L12.25,15.75 Z M13.125,9.625 C13.125,11.0747475 11.9497475,12.25 10.5,12.25 C9.05025253,12.25 7.875,11.0747475 7.875,9.625 C7.875,8.17525253 9.05025253,7 10.5,7 C11.9497475,7 13.125,8.17525253 13.125,9.625 Z M17.5,14 C18.095,14 18.62,14.2975 18.935,14.749 C19.8369561,14.2574324 20.8477885,13.9999108 21.875,14 C25.655,14 28,17.3705 28,20.24925 L28,26.25 C28,27.2164983 27.2164983,28 26.25,28 C25.2835017,28 24.5,27.2164983 24.5,26.25 L24.5,20.2475 C24.5,18.9035 23.345,17.49825 21.875,17.49825 C20.958,17.49825 19.94475,17.997 19.25,19.1835 L19.25,26.25 C19.25,27.2164983 18.4664983,28 17.5,28 C16.5335017,28 15.75,27.2164983 15.75,26.25 L15.75,15.75 C15.75,14.7835017 16.5335017,14 17.5,14 Z" opacity=".35"/>
</svg>
