<svg xmlns="http://www.w3.org/2000/svg" width="35" height="35" viewBox="0 0 35 35">
  <path fill-rule="evenodd" d="M7,0 C3.13400675,-3.88578059e-16 7.77156117e-16,3.13400675 0,7 L0,28 C7.77156117e-16,31.8659932 3.13400675,35 7,35 L28,35 C31.8659932,35 35,31.8659932 35,28 L35,7 C35,3.13400675 31.8659932,0 28,0 L7,0 Z M3.5,7 C3.5,5.06700338 5.06700338,3.5 7,3.5 L28,3.5 C29.9329966,3.5 31.5,5.06700338 31.5,7 L31.5,28 C31.5,29.9329966 29.9329966,31.5 28,31.5 L7,31.5 C5.06700338,31.5 3.5,29.9329966 3.5,28 L3.5,7 Z M8.75,8.75 C7.78350169,8.75 7,9.53350169 7,10.5 C7,11.4664983 7.78350169,12.25 8.75,12.25 L8.75,22.75 C7.78350169,22.75 7,23.5335017 7,24.5 C7,25.4664983 7.78350169,26.25 8.75,26.25 L12.25,26.25 C13.2164983,26.25 14,25.4664983 14,24.5 C14,23.5335017 13.2164983,22.75 12.25,22.75 L12.25,16.28025 L16.044,21.97125 C16.3685781,22.4580215 16.9149381,22.7503926 17.5,22.7503926 C18.0850619,22.7503926 18.6314219,22.4580215 18.956,21.97125 L22.75,16.28025 L22.75,22.75 C21.7835017,22.75 21,23.5335017 21,24.5 C21,25.4664983 21.7835017,26.25 22.75,26.25 L26.25,26.25 C27.2164983,26.25 28,25.4664983 28,24.5 C28,23.5335017 27.2164983,22.75 26.25,22.75 L26.25,12.25 C27.2164983,12.25 28,11.4664983 28,10.5 C28,9.53350169 27.2164983,8.75 26.25,8.75 L24.5,8.74999998 C23.9150126,8.74991246 23.368668,9.04212799 23.044,9.52875 L17.5,17.84475 L11.956,9.52875 C11.631332,9.04212799 11.0849874,8.74991246 10.5,8.74999998 L8.75,8.75 Z" opacity=".35"/>
</svg>
