<svg xmlns="http://www.w3.org/2000/svg" xmlns:xlink="http://www.w3.org/1999/xlink" width="212" height="82" viewBox="0 0 212 82">
  <defs>
    <circle id="software-b" cx="26" cy="26" r="26"/>
    <filter id="software-a" width="180.8%" height="180.8%" x="-40.4%" y="-28.8%" filterUnits="objectBoundingBox">
      <feOffset dy="6" in="SourceAlpha" result="shadowOffsetOuter1"/>
      <feGaussianBlur in="shadowOffsetOuter1" result="shadowBlurOuter1" stdDeviation="6"/>
      <feColorMatrix in="shadowBlurOuter1" values="0 0 0 0 0   0 0 0 0 0   0 0 0 0 0  0 0 0 0.1 0"/>
    </filter>
    <linearGradient id="software-c" x1="108.633%" x2="46.927%" y1="28.531%" y2="67.075%">
      <stop offset="18%" stop-color="#0052CC"/>
      <stop offset="100%" stop-color="#2684FF"/>
    </linearGradient>
    <circle id="software-e" cx="26" cy="26" r="26"/>
    <filter id="software-d" width="180.8%" height="180.8%" x="-40.4%" y="-28.8%" filterUnits="objectBoundingBox">
      <feOffset dy="6" in="SourceAlpha" result="shadowOffsetOuter1"/>
      <feGaussianBlur in="shadowOffsetOuter1" result="shadowBlurOuter1" stdDeviation="6"/>
      <feColorMatrix in="shadowBlurOuter1" values="0 0 0 0 0   0 0 0 0 0   0 0 0 0 0  0 0 0 0.1 0"/>
    </filter>
    <linearGradient id="software-f" x1="68.607%" x2="40.339%" y1="40.328%" y2="81.66%">
      <stop offset="18%" stop-color="#0052CC"/>
      <stop offset="100%" stop-color="#2684FF"/>
    </linearGradient>
    <linearGradient id="software-g" x1="31.649%" x2="59.886%" y1="59.166%" y2="17.99%">
      <stop offset="18%" stop-color="#0052CC"/>
      <stop offset="100%" stop-color="#2684FF"/>
    </linearGradient>
    <circle id="software-i" cx="26" cy="26" r="26"/>
    <filter id="software-h" width="169.2%" height="169.2%" x="-34.6%" y="-34.6%" filterUnits="objectBoundingBox">
      <feOffset in="SourceAlpha" result="shadowOffsetOuter1"/>
      <feGaussianBlur in="shadowOffsetOuter1" result="shadowBlurOuter1" stdDeviation="6"/>
      <feColorMatrix in="shadowBlurOuter1" values="0 0 0 0 0   0 0 0 0 0   0 0 0 0 0  0 0 0 0.1 0"/>
    </filter>
  </defs>
  <g fill="none" fill-rule="evenodd" transform="translate(12 12)">
    <use fill="#000" filter="url(#software-a)" xlink:href="#software-b"/>
    <use fill="#FFF" xlink:href="#software-b"/>
    <g transform="translate(8 8)">
      <rect width="36" height="36" fill="#FFF" fill-opacity=".5" opacity="0" rx="4"/>
      <g transform="translate(8 9)">
        <polygon points="8.676 11.565 13.099 11.565 14.167 5.783 7.5 5.783"/>
        <path fill="#2684FF" fill-rule="nonzero" d="M0.649072708,5.40060756e-05 C0.459767948,-0.00246902913 0.279072393,0.083520068 0.155457534,0.23501118 C0.0318426757,0.386502292 -0.0220379689,0.587988419 0.00826905634,0.78542101 L2.72848056,18.231502 C2.79844033,18.6721882 3.15780825,18.996186 3.58074942,18.9999446 L16.6307158,18.9999446 C16.9481653,19.0042043 17.2207496,18.7623027 17.2715194,18.4312146 L19.9917309,0.788805969 C20.022038,0.591373378 19.9681573,0.389887251 19.8445425,0.238396139 C19.7209276,0.0869050274 19.5402321,0.000915930311 19.3509273,0.00349537939 L0.649072708,5.40060756e-05 Z M12.103438,12.6090843 L7.93821425,12.6090843 L6.81039982,6.38414392 L13.1127037,6.38414392 L12.103438,12.6090843 Z"/>
        <path fill="url(#software-c)" fill-rule="nonzero" d="M19.1666667,6.60869565 L12.9436045,6.60869565 L11.8992441,12.7228641 L7.58918507,12.7228641 L3.08020025,18.7805123 C3.24150493,18.9203844 3.36751012,18.9981636 3.58074942,18.9999442 L16.5872621,18.9999442 C16.9157501,19.0041839 17.1978129,18.7665869 17.2503481,18.4413904 L19.1666667,6.60869565 Z"/>
      </g>
    </g>
    <g transform="translate(68)">
      <use fill="#000" filter="url(#software-d)" xlink:href="#software-e"/>
      <use fill="#FFF" xlink:href="#software-e"/>
      <g transform="translate(8 8)">
        <rect width="36" height="36" fill="#FFF" fill-opacity=".5" opacity="0" rx="4"/>
        <g transform="translate(8 8)">
          <circle cx="10" cy="10" r="10" fill="#FFF"/>
          <g fill-rule="nonzero">
            <path fill="#2684FF" d="M19.7605286,9.44033791 L10.8625076,0.834213305 L10,0 L10,0 L3.30191916,6.47835269 L3.30191916,6.47835269 L0.239471439,9.44033791 C-0.0798238129,9.74954334 -0.0798238129,10.2504567 0.239471439,10.5596621 L6.35890797,16.4783527 L10,20 L16.6980808,13.5216473 L16.8018001,13.4213305 L19.7605286,10.5596621 C20.0798238,10.2504567 20.0798238,9.74954334 19.7605286,9.44033791 Z M10,12.9567054 L6.94301119,10 L10,7.04329461 L13.0569888,10 L10,12.9567054 Z"/>
            <path fill="url(#software-f)" d="M10,7.0269556 C8.01195019,5.08885094 8.00226114,1.94973025 9.97831097,0 L3.33333333,6.47463002 L6.94997967,10 L10,7.0269556 Z"/>
            <path fill="url(#software-g)" d="M13.0470764,10 L10,12.9622791 C10.9603481,13.8953464 11.4999141,15.1611905 11.4999141,16.4811395 C11.4999141,17.8010886 10.9603481,19.0669327 10,20 L10,20 L16.6666667,13.5188605 L13.0470764,10 Z"/>
          </g>
        </g>
      </g>
    </g>
    <g transform="translate(136)">
      <use fill="#000" filter="url(#software-h)" xlink:href="#software-i"/>
      <use fill="#FFF" xlink:href="#software-i"/>
      <g transform="translate(8 8)">
        <rect width="36" height="36" fill="#FFF" fill-opacity=".5" opacity="0" rx="4"/>
        <path fill="#231E1B" d="M10.0479449,0 C5.12119604,-0.00510978144 0.919233336,3.64335604 0.130400848,8.61117662 C-0.65843164,13.5789972 2.1991241,18.3971865 6.87485265,19.9831491 C7.38008287,20.0775576 7.55876185,19.7565685 7.55876185,19.4859307 C7.55876185,19.2152928 7.55876185,18.5984903 7.55876185,17.7425194 C4.75535026,18.3656159 4.16386122,16.3641545 4.16386122,16.3641545 C3.97788031,15.7438435 3.58277207,15.2109014 3.04865793,14.8599116 C2.14294034,14.2305212 3.12259406,14.2305212 3.12259406,14.2305212 C3.76590884,14.3233441 4.33167468,14.7132783 4.65676875,15.287897 C4.93210576,15.7978892 5.39494467,16.1748621 5.94297507,16.3354859 C6.49100547,16.4961096 7.07909474,16.4271563 7.57724589,16.1438679 C7.61591465,15.6260992 7.83443009,15.1394867 8.1933803,14.771797 C5.96297372,14.5137469 3.62166293,13.6326004 3.62166293,9.73667413 C3.6063483,8.71893828 3.97475559,7.7341615 4.65060741,6.98623829 C4.34959756,6.10133351 4.38477926,5.13323683 4.74918892,4.27356587 C4.74918892,4.27356587 5.59329307,3.99663411 7.5094711,5.32464776 C9.15491018,4.86315413 10.8916889,4.86315413 12.5371279,5.32464776 C14.453306,3.99663411 15.2912488,4.27356587 15.2912488,4.27356587 C15.660734,5.12413995 15.7047016,6.08529162 15.4144757,6.96735658 C16.0903275,7.71527979 16.4587348,8.70005657 16.4434201,9.71779242 C16.4434201,13.657776 14.095948,14.5200408 11.8593801,14.7529152 C12.3446314,15.2512001 12.5941782,15.9401616 12.5432893,16.6410863 C12.5432893,18.0131573 12.5432893,19.1208843 12.5432893,19.4544612 C12.5432893,19.7880381 12.7219683,20.0460881 13.2333598,19.9453857 C17.8535672,18.3183989 20.6550338,13.5285952 19.8681521,8.60155869 C19.0812703,3.67452213 14.934798,0.0426127452 10.0479449,0 Z" transform="translate(8 8)"/>
      </g>
    </g>
  </g>
</svg>
