<svg xmlns="http://www.w3.org/2000/svg" width="51" height="45" viewBox="0 0 51 45">
  <g fill="none">
    <path fill="#00ACEA" d="M50.0674055,4.66760533 L50.0674055,12.077807 L40.7763372,12.077807 L40.7763372,4.66760533 C40.7718477,2.10610465 42.8448401,0.0261627907 45.405932,0.022074907 L45.4292332,0.022074907 C47.9878724,0.022074907 50.0629088,2.09424966 50.0674055,4.65288886 L50.0674055,4.66760533 Z"/>
    <path fill="#00EFD1" d="M12.0013627,0.022074907 L45.405932,0.022074907 C42.8448401,0.0261627907 40.7718477,2.10610465 40.7763445,4.66760533 L40.7763445,38.7062137 C40.7722565,42.1515262 37.9781523,44.9423601 34.5328398,44.9423601 L34.5140352,44.9423601 C34.3697311,44.9423601 34.2270622,44.9370458 34.084802,44.9268259 C30.8115916,44.6979015 28.2742096,41.9741098 28.2778889,38.6927235 L28.2778889,34.6562954 L7.35583207,34.6562954 L7.35583207,34.6006995 L7.57658072,4.39126095 C7.57658072,1.95812142 9.56822316,0.022074907 12.0013627,0.022074907 Z M30.2053506,14.793423 L30.2053506,8.82217476 L23.6217297,5.58820863 L17.039335,8.81277258 L17.039335,14.793423 C17.039335,16.3235375 18.0302507,18.1978561 19.2954669,19.0612282 L23.6217297,22.0110828 L27.9479924,19.0612282 C29.2132086,18.1978561 30.2053506,16.3235375 30.2053506,14.793423 Z"/>
    <path fill="#00ACEA" d="M34.084802 44.9268259L34.0839843 44.9423601 6.2435047 44.9423601C2.7981922 44.9423601.00408793605 42.1515262 2.84217094e-14 38.7062137L2.84217094e-14 34.6562954 28.2778889 34.6562954 28.2778889 38.6927235C28.2742096 41.9741098 30.8115916 44.6979015 34.084802 44.9268259L34.084802 44.9268259zM30.2053506 8.82217476L30.2053506 14.793423C30.2053506 16.3235375 29.2132086 18.1978561 27.9479924 19.0612282L23.6217297 22.0110828 19.2954669 19.0612282C18.0302507 18.1978561 17.039335 16.3235375 17.039335 14.793423L17.039335 8.81277258 23.6217297 5.58820863 30.2053506 8.82217476z"/>
    <path fill="#FEDB41" d="M22.7992369,16.302689 L22.797193,16.302689 C22.5744005,16.3018714 22.3610102,16.2127544 22.2044422,16.0545512 L20.519395,14.3527435 C20.3055959,14.1409884 20.2217933,13.830714 20.3002816,13.539653 C20.37877,13.2490007 20.6072856,13.0229378 20.8987555,12.947311 C21.1902253,12.8716843 21.499682,12.9587573 21.7093931,13.1746003 L22.8025073,14.278343 L25.5385628,11.5435139 C25.8655977,11.216479 26.395803,11.216479 26.7224291,11.5435139 C27.049464,11.8705487 27.049464,12.4003453 26.7224291,12.7273801 L23.3915788,16.0574128 C23.2341933,16.2143895 23.0212119,16.302689 22.7992369,16.302689 Z"/>
    <path fill="#00ACEA" d="M20.9523075 1.76108285L.859284209 1.76108285C.396938616 1.76108285.022074907 1.38662791.022074907.923873547.022074907.461527953.396938616.0866642442.859284209.0866642442L20.9523075.0866642442C21.414653.0866642442 21.7895168.461527953 21.7895168.923873547 21.7895168 1.38662791 21.414653 1.76108285 20.9523075 1.76108285zM20.9523075 5.63317587L.859284209 5.63317587C.396938616 5.63317587.022074907 5.25872093.022074907 4.79596657.022074907 4.33362098.396938616 3.95875727.859284209 3.95875727L20.9523075 3.95875727C21.414653 3.95875727 21.7895168 4.33362098 21.7895168 4.79596657 21.7895168 5.25872093 21.414653 5.63317587 20.9523075 5.63317587z" transform="translate(13.081 25.012)"/>
  </g>
</svg>
