<svg xmlns="http://www.w3.org/2000/svg" width="51" height="45" viewBox="0 0 51 45">
  <g fill="#A6A6A6">
    <path d="M44.8250246,0 L12.49331,0 C9.6873746,0 7.40451259,2.25441424 7.40451259,5.01646581 L7.19615298,33.396861 L0.886455435,33.396861 C0.439292805,33.396861 0.097693786,33.7909893 0.097693786,34.2367486 L0.097693786,38.1425606 C0.097693786,41.7988895 3.03291498,44.7891413 6.57542333,44.9530987 L6.57542333,45 L33.8021303,45 L33.8021303,44.9471867 C34.0045594,44.9554635 34.1271239,45 34.2662938,45 L34.2856669,45 C38.0638153,44.9779288 41.1093445,41.908063 41.089576,38.1417724 L41.089576,13.3183857 L49.308907,13.3183857 C49.7560697,13.3183857 50.0976771,12.9147982 50.0976771,12.4694332 L50.0976771,5.30299715 C50.1028085,2.3903885 47.7468033,0.020888778 44.8250246,0 Z M6.92967416,43.3856502 L6.92413894,43.3856502 C4.04387409,43.3856502 1.71712617,41.0126034 1.71712617,38.1417724 L1.71712617,35.0112108 L27.4256153,35.0112108 L27.4256153,38.128372 C27.4192894,39.9453038 28.1392567,41.6897159 29.4261836,42.9761508 C29.5629814,43.1133075 29.706105,43.1838565 29.8523916,43.3856502 L6.92967416,43.3856502 Z M39.4701437,38.1409841 C39.4701437,41.0126034 37.1659318,43.3856502 34.2844808,43.3856502 L34.2678752,43.3856502 C31.372191,43.3647614 29.0383264,41.0153622 29.0450477,38.1287662 L29.0450477,34.2367486 C29.0474199,33.7846833 28.68882,33.4126261 28.2353315,33.396861 L8.81558536,33.396861 L9.02394497,5.02198365 C9.02394497,3.14475024 10.5801183,1.61434978 12.49331,1.61434978 L41.0021995,1.61434978 C40.0794076,2.62331839 39.4701437,3.89990018 39.4701437,5.32467424 L39.4701437,38.1409841 Z M48.4782774,5.31718577 L48.4782774,11.7040359 L41.089576,11.7040359 L41.089576,5.32309762 C41.089576,3.30279568 42.7754305,1.61434978 44.8013024,1.61434978 L44.8238384,1.61434978 C46.8548503,1.63445035 48.4877252,3.28624224 48.4782774,5.31127382 L48.4782774,5.31718577 Z"/>
    <path d="M18.565841,19.9199518 L22.6610047,22.855151 C22.928224,23.048283 23.2815428,23.048283 23.5487621,22.855151 L27.6315151,19.9207651 C29.0498326,18.906314 30.0973785,16.7855219 30.0973785,14.9871585 L30.0973785,9.04845242 C30.1059109,8.73456217 29.9406926,8.44344116 29.6738612,8.30072678 L23.4386166,5.08538465 C23.2198769,4.97153845 22.9631292,4.97153845 22.7443896,5.08538465 L16.52078,8.29178178 C16.2539486,8.43449605 16.0891182,8.72561716 16.0980385,9.03950731 L16.0980385,14.9871585 C16.0980385,16.7855219 17.1479114,18.906314 18.565841,19.9199518 Z M17.6866161,9.55913398 L23.0977085,6.76014369 L28.5088009,9.56685928 L28.5088009,14.9871585 C28.5088009,16.2414997 27.7245958,17.8369729 26.7352254,18.5440391 L23.0884004,21.1588425 L19.4559253,18.5444458 C18.4665549,17.8365664 17.6866161,16.2414997 17.6866161,14.9871585 L17.6866161,9.55913398 Z"/>
    <path d="M21.826948 16.7494874C21.966974 16.9086078 22.1583183 16.998776 22.3584601 17L22.3602929 17C22.5597016 16.9991841 22.7506794 16.9102398 22.8910719 16.7527514L25.8774369 13.4275442C26.1710516 13.1011435 26.1710516 12.5715583 25.8778035 12.2451575 25.584922 11.9183488 25.109127 11.9183488 24.8158789 12.2447496L22.3628589 14.9746836 21.3823106 13.8726732C21.0901622 13.5446405 20.6147337 13.5421924 20.3200194 13.8673691 20.0253051 14.1925459 20.0234723 14.721723 20.3152542 15.0497557L21.826948 16.7494874zM33.2900015 26L13.9053861 26C13.4593411 26 13.0976938 26.2238769 13.0976938 26.5 13.0976938 26.7761231 13.4593411 27 13.9053861 27L33.2900015 27C33.7360464 27 34.0976938 26.7761231 34.0976938 26.5 34.0976938 26.2238769 33.7360464 26 33.2900015 26zM33.2900015 28L13.9053861 28C13.4593411 28 13.0976938 28.2238769 13.0976938 28.5 13.0976938 28.7761231 13.4593411 29 13.9053861 29L33.2900015 29C33.7360464 29 34.0976938 28.7761231 34.0976938 28.5 34.0976938 28.2238769 33.7360464 28 33.2900015 28z"/>
  </g>
</svg>
