<svg xmlns="http://www.w3.org/2000/svg" width="35" height="30" viewBox="0 0 35 30">
  <g fill="none" fill-rule="evenodd">
    <path fill="#A9D8FF" d="M3.40621251,15.5391235 C3.08719165,15.9044772 2.94268541,16.3904328 3.01023637,16.8707395 C3.19903512,18.2090386 3.99934131,19.3618805 4.88485756,20.2423844 C5.12545066,20.4813067 5.3827516,20.7102043 5.65341883,20.9290772 L5.52810993,20.9624929 C4.72446217,21.1629871 3.64012246,21.2047567 1.83400347,21.0293243 C1.13531725,20.9607601 0.468294004,21.3362835 0.164534904,21.9692084 C-0.139224195,22.6021332 -0.014918585,23.3574385 0.475654957,23.8596347 C3.85369183,27.3124355 8.4835611,29.2537993 13.3139698,29.2429508 C22.8591666,29.2429508 30.6884669,21.8313013 31.131225,12.4782447 C33.2865382,10.6687842 34.3641947,8.21774202 34.945628,5.99058512 C35.0766365,5.48961206 34.967956,4.95620771 34.651383,4.5464288 C34.33481,4.1366499 33.8461274,3.89681465 33.3283078,3.89709104 L29.3969498,3.89709104 C27.4252407,0.835583306 23.7220245,-0.629317531 20.1895028,0.254852439 C16.656981,1.13902241 14.0804841,4.17569949 13.7834605,7.80505803 C10.7036303,7.0033302 7.9479623,5.26680991 5.89568271,2.83447154 C5.52628596,2.39771354 4.9591252,2.18029249 4.39243137,2.25820019 C3.82573753,2.33610789 3.33829001,2.69851394 3.10045878,3.21875218 C2.08796284,5.42753044 1.89415174,7.97380736 3.02360265,10.5635247 L2.63263888,10.7306032 C1.85857874,11.0604363 1.4505576,11.9144174 1.68029121,12.7238502 C1.99105729,13.8132022 2.68944558,14.7755746 3.40454172,15.5391235 L3.40621251,15.5391235 Z"/>
    <path fill="#000" d="M22.2526715,3.34238985 C20.7070474,3.34174632 19.2426587,4.03452365 18.2628538,5.22990506 C17.2830489,6.42528647 16.8911879,7.99717056 17.1952042,9.51260069 C17.3000669,10.0386143 17.1460192,10.5829911 16.781075,10.9760588 C16.4161309,11.3691265 15.8846658,11.5630898 15.3523279,11.4974937 C11.7596915,11.0561717 8.37299726,9.57935472 5.60496606,7.24701572 C5.65676041,8.25282851 6.00595455,9.32213115 6.76282032,10.4415574 L7.89728359,12.1190259 L6.0343579,12.9126489 L5.67513904,13.0663612 C5.9424647,13.3721149 6.2632555,13.6845518 6.62247435,13.9936471 C7.10268421,14.4046702 7.61069684,14.782051 8.14288904,15.123098 L8.16126768,15.1347935 L8.16293847,15.1347935 L10.7493142,16.7036609 L8.04264192,18.0569971 C7.90897909,18.1238285 7.77531626,18.1839768 7.64165343,18.2374419 C8.22365345,18.7210494 8.86481265,19.1286515 9.54969033,19.4504321 L11.872082,20.5481381 L9.92728782,22.2256066 C8.86633911,23.141197 7.79870726,23.8245482 6.41362618,24.1854379 C8.5379237,25.3169664 10.9087813,25.9063808 13.3156406,25.9013666 C21.3454351,25.9013666 27.8113745,19.4938725 27.8113745,11.642852 L27.8113745,10.7740436 L28.5214583,10.2744788 C29.6308598,9.49589283 30.4144581,8.44329805 30.975842,7.23866179 L27.3669456,7.23866179 L26.9124919,6.28631413 C26.058346,4.48799669 24.2451991,3.34209826 22.2543423,3.34238985 L22.2526715,3.34238985 Z M3.40621251,15.5391235 C3.08719165,15.9044772 2.94268541,16.3904328 3.01023637,16.8707395 C3.19903512,18.2090386 3.99934131,19.3618805 4.88485756,20.2423844 C5.12545066,20.4813067 5.3827516,20.7102043 5.65341883,20.9290772 L5.52810993,20.9624929 C4.72446217,21.1629871 3.64012246,21.2047567 1.83400347,21.0293243 C1.13531725,20.9607601 0.468294004,21.3362835 0.164534904,21.9692084 C-0.139224195,22.6021332 -0.014918585,23.3574385 0.475654957,23.8596347 C3.85369183,27.3124355 8.4835611,29.2537993 13.3139698,29.2429508 C22.8591666,29.2429508 30.6884669,21.8313013 31.131225,12.4782447 C33.2865382,10.6687842 34.3641947,8.21774202 34.945628,5.99058512 C35.0766365,5.48961206 34.967956,4.95620771 34.651383,4.5464288 C34.33481,4.1366499 33.8461274,3.89681465 33.3283078,3.89709104 L29.3969498,3.89709104 C27.4252407,0.835583306 23.7220245,-0.629317531 20.1895028,0.254852439 C16.656981,1.13902241 14.0804841,4.17569949 13.7834605,7.80505803 C10.7036303,7.0033302 7.9479623,5.26680991 5.89568271,2.83447154 C5.52628596,2.39771354 4.9591252,2.18029249 4.39243137,2.25820019 C3.82573753,2.33610789 3.33829001,2.69851394 3.10045878,3.21875218 C2.08796284,5.42753044 1.89415174,7.97380736 3.02360265,10.5635247 L2.63263888,10.7306032 C1.85857874,11.0604363 1.4505576,11.9144174 1.68029121,12.7238502 C1.99105729,13.8132022 2.68944558,14.7755746 3.40454172,15.5391235 L3.40621251,15.5391235 Z" opacity=".35"/>
  </g>
</svg>
