<svg xmlns="http://www.w3.org/2000/svg" width="35" height="30" viewBox="0 0 35 30">
  <path fill-rule="evenodd" d="M187.252672,940.34239 C185.707047,940.341746 184.242659,941.034524 183.262854,942.229905 C182.283049,943.425286 181.891188,944.997171 182.195204,946.512601 C182.300067,947.038614 182.146019,947.582991 181.781075,947.976059 C181.416131,948.369127 180.884666,948.56309 180.352328,948.497494 C176.759691,948.056172 173.372997,946.579355 170.604966,944.247016 C170.65676,945.252829 171.005955,946.322131 171.76282,947.441557 L172.897284,949.119026 L171.034358,949.912649 L170.675139,950.066361 C170.942465,950.372115 171.263255,950.684552 171.622474,950.993647 C172.102684,951.40467 172.610697,951.782051 173.142889,952.123098 L173.161268,952.134793 L173.162938,952.134793 L175.749314,953.703661 L173.042642,955.056997 C172.908979,955.123829 172.775316,955.183977 172.641653,955.237442 C173.223653,955.721049 173.864813,956.128651 174.54969,956.450432 L176.872082,957.548138 L174.927288,959.225607 C173.866339,960.141197 172.798707,960.824548 171.413626,961.185438 C173.537924,962.316966 175.908781,962.906381 178.315641,962.901334 C186.345435,962.901334 192.811374,956.493873 192.811374,948.642852 L192.811374,947.774044 L193.521458,947.274479 C194.63086,946.495893 195.414458,945.443298 195.975842,944.238662 L192.366946,944.238662 L191.912492,943.286314 C191.058346,941.487997 189.245199,940.342098 187.254342,940.34239 L187.252672,940.34239 Z M168.406213,952.539124 C168.087192,952.904477 167.942685,953.390433 168.010236,953.870739 C168.199035,955.209039 168.999341,956.36188 169.884858,957.242384 C170.125451,957.481307 170.382752,957.710204 170.653419,957.929077 L170.52811,957.962493 C169.724462,958.162987 168.640122,958.204757 166.834003,958.029324 C166.135317,957.96076 165.468294,958.336284 165.164535,958.969208 C164.860776,959.602133 164.985081,960.357438 165.475655,960.859635 C168.853692,964.312436 173.483561,966.253799 178.31397,966.242905 C187.859167,966.242905 195.688467,958.831301 196.131225,949.478245 C198.286538,947.668784 199.364195,945.217742 199.945628,942.990585 C200.076636,942.489612 199.967956,941.956208 199.651383,941.546429 C199.33481,941.13665 198.846127,940.896815 198.328308,940.897091 L194.39695,940.897091 C192.425241,937.835583 188.722025,936.370682 185.189503,937.254852 C181.656981,938.139022 179.080484,941.175699 178.78346,944.805058 C175.70363,944.00333 172.947962,942.26681 170.895683,939.834472 C170.526286,939.397714 169.959125,939.180292 169.392431,939.2582 C168.825738,939.336108 168.33829,939.698514 168.100459,940.218752 C167.087963,942.42753 166.894152,944.973807 168.023603,947.563525 L167.632639,947.730603 C166.858579,948.060436 166.450558,948.914417 166.680291,949.72385 C166.991057,950.813202 167.689446,951.775575 168.404542,952.539124 L168.406213,952.539124 Z" opacity=".35" transform="translate(-165 -937)"/>
</svg>
